<?xml version="1.0" encoding="utf-8"?>
<!-- Generator: Adobe Illustrator 27.5.0, SVG Export Plug-In . SVG Version: 6.00 Build 0)  -->
<svg version="1.1" xmlns="http://www.w3.org/2000/svg" xmlns:xlink="http://www.w3.org/1999/xlink" x="0px" y="0px"
	 viewBox="0 0 500 500" style="enable-background:new 0 0 500 500;" xml:space="preserve">
<g id="Background_complete">
	<g>
		<g>
			<g>
				<g>
					<g>
						<path style="fill:#E0E0E0;" d="M443.92,306.948H263.174c-3.232,0-5.862-2.63-5.862-5.862V37.812
							c0-3.232,2.63-5.862,5.862-5.862H443.92c3.232,0,5.862,2.629,5.862,5.862v263.273
							C449.783,304.318,447.153,306.948,443.92,306.948z M263.174,32.2c-3.095,0-5.612,2.518-5.612,5.612v263.273
							c0,3.095,2.518,5.612,5.612,5.612H443.92c3.095,0,5.612-2.517,5.612-5.612V37.812c0-3.094-2.518-5.612-5.612-5.612H263.174z"
							/>
					</g>
				</g>
				<g>
					<g>
						<path style="fill:#E0E0E0;" d="M235.493,306.948H54.746c-3.232,0-5.862-2.63-5.862-5.862V37.812
							c0-3.232,2.629-5.862,5.862-5.862h180.747c3.232,0,5.862,2.629,5.862,5.862v263.273
							C241.355,304.318,238.725,306.948,235.493,306.948z M54.746,32.2c-3.094,0-5.612,2.518-5.612,5.612v263.273
							c0,3.095,2.518,5.612,5.612,5.612h180.747c3.095,0,5.612-2.517,5.612-5.612V37.812c0-3.094-2.518-5.612-5.612-5.612H54.746z"
							/>
					</g>
				</g>
			</g>
			<g>
				<g>
					<rect x="0" y="368.017" style="fill:#E0E0E0;" width="500" height="0.25"/>
				</g>
			</g>
		</g>
		<rect x="51.672" y="382.281" style="fill:#E0E0E0;" width="16.06" height="0.25"/>
		<rect x="170.352" y="379.572" style="fill:#E0E0E0;" width="53.53" height="0.25"/>
		<rect x="68.732" y="391.572" style="fill:#E0E0E0;" width="36.25" height="0.25"/>
		<rect x="378.352" y="379.441" style="fill:#E0E0E0;" width="43.19" height="0.25"/>
		<rect x="430.452" y="379.441" style="fill:#E0E0E0;" width="6.33" height="0.25"/>
		<rect x="316.212" y="385.672" style="fill:#E0E0E0;" width="53.89" height="0.25"/>
	</g>
	<g>
		<path style="fill:#E0E0E0;" d="M154.052,155.538c-0.177-0.67-0.28-1.356-0.307-2.048c-0.256-4.267-4.267-3.559-7.74-4.139
			c-2.688-0.444,4.429-7.237-0.99-9.387c-1.056-0.293-1.98-0.937-2.62-1.826c-0.683-1.263,0-2.927,1.186-3.755
			c1.229-0.757,2.654-1.131,4.096-1.075c0.853-1.075,0.162-2.697-0.691-3.789s-1.903-2.347-1.579-3.704
			c0.486-2.048,3.345-2.116,5.41-1.707c0.76-1.229,0.743-2.773,1.118-4.182c0.376-1.408,1.485-2.876,2.927-2.697
			c1.442,0.179,2.185,1.707,3.516,2.014c1.545,0.358,2.884-1.007,4.096-2.031c1.212-1.024,3.337-1.664,4.164-0.316
			c0.504,0.811,0.205,1.937,0.725,2.731c0.853,1.382,3.038,0.521,4.361-0.452c1.323-0.973,3.414-1.869,4.369-0.512
			c0.236,0.449,0.408,0.929,0.512,1.425c0.632,1.809,2.56,2.705,4.113,3.866c1.553,1.161,2.731,3.473,1.442,4.89
			c-0.64,0.7-1.758,0.981-2.074,1.869c-0.393,1.118,0.742,2.116,1.638,2.876c1.502,1.28,1.775,5.12-0.205,6.136
			c-0.853,0.435-2.057,0.572-2.253,1.485s0.649,1.459,1.195,2.091c1.335,1.714,1.029,4.186-0.685,5.521
			c-0.163,0.127-0.337,0.242-0.518,0.342c-0.469,0.222-1.058,0.41-1.229,0.913c-0.078,0.37-0.039,0.754,0.111,1.101
			c0.19,0.691,0.253,1.411,0.188,2.125c0.001,0.246-0.09,0.484-0.256,0.666c-0.185,0.128-0.407,0.191-0.632,0.179
			c-2.859,0.128-4.267-0.853-5.974,1.604c-0.151,0.252-0.355,0.467-0.597,0.632c-0.245,0.121-0.512,0.188-0.785,0.196
			c-1.971,0.162-3.251-1.067-5.052-1.297c-2.492-0.316-3.021,0.973-5.214,2.005C156.374,158.892,154.701,157.894,154.052,155.538z"
			/>
		<path style="fill:#E0E0E0;" d="M186.984,151.98c-0.169-0.671-0.271-1.357-0.307-2.048c-0.247-4.267-4.267-3.567-7.74-4.139
			c-2.688-0.452,4.438-7.237-0.99-9.43c-1.054-0.291-1.976-0.936-2.611-1.826c-0.683-1.263,0-2.927,1.178-3.755
			c1.238-0.744,2.67-1.104,4.113-1.033c0.853-1.075,0.171-2.697-0.683-3.789c-0.853-1.092-1.912-2.347-1.587-3.704
			c0.495-2.048,3.354-2.116,5.41-1.707c0.768-1.229,0.751-2.773,1.118-4.182c0.367-1.408,1.493-2.876,2.927-2.697
			c1.434,0.179,2.193,1.707,3.525,2.006c1.545,0.367,2.884-0.999,4.096-2.022c1.212-1.024,3.328-1.664,4.165-0.316
			c0.503,0.853,0.205,1.937,0.717,2.731c0.904,1.382,3.038,0.521,4.369-0.452c1.331-0.973,3.413-1.869,4.369-0.512
			c0.231,0.448,0.403,0.924,0.512,1.417c0.632,1.818,2.56,2.714,4.105,3.874c1.545,1.16,2.739,3.473,1.442,4.89
			c-0.632,0.7-1.749,0.981-2.065,1.869c-0.401,1.118,0.742,2.116,1.639,2.876c1.502,1.28,1.766,5.12-0.213,6.136
			c-0.853,0.435-2.048,0.572-2.253,1.485c-0.205,0.913,0.649,1.459,1.203,2.091c1.335,1.714,1.029,4.186-0.686,5.521
			c-0.163,0.127-0.337,0.242-0.518,0.341c-0.478,0.222-1.058,0.41-1.237,0.913c-0.078,0.37-0.039,0.754,0.111,1.101
			c0.197,0.69,0.263,1.411,0.196,2.125c-0.003,0.245-0.094,0.482-0.256,0.666c-0.187,0.124-0.408,0.187-0.632,0.179
			c-2.859,0.128-4.267-0.853-5.974,1.604c-0.155,0.248-0.358,0.462-0.597,0.632c-0.248,0.121-0.518,0.188-0.794,0.196
			c-1.963,0.162-3.251-1.067-5.043-1.297c-2.492-0.316-3.021,0.973-5.214,1.997C189.314,155.333,187.633,154.335,186.984,151.98z"/>
		<path style="fill:#E0E0E0;" d="M173.97,175.648c-0.168-0.671-0.271-1.357-0.307-2.048c-0.247-4.267-4.267-3.567-7.74-4.139
			c-2.688-0.452,4.438-7.237-0.99-9.43c-1.054-0.291-1.976-0.936-2.611-1.826c-0.683-1.263,0-2.927,1.178-3.755
			c1.238-0.744,2.67-1.104,4.113-1.033c0.853-1.075,0.171-2.697-0.683-3.789c-0.853-1.092-1.911-2.347-1.587-3.704
			c0.495-2.048,3.354-2.116,5.41-1.707c0.768-1.229,0.751-2.773,1.118-4.182c0.367-1.408,1.493-2.876,2.927-2.697
			s2.193,1.707,3.525,2.006c1.545,0.367,2.884-0.999,4.096-2.023c1.212-1.024,3.328-1.664,4.164-0.316
			c0.504,0.853,0.205,1.937,0.717,2.731c0.905,1.382,3.038,0.521,4.369-0.452c1.331-0.973,3.414-1.869,4.369-0.512
			c0.231,0.448,0.403,0.924,0.512,1.417c0.632,1.818,2.56,2.714,4.105,3.874s2.739,3.473,1.442,4.89
			c-0.632,0.7-1.749,0.981-2.065,1.869c-0.401,1.118,0.742,2.116,1.639,2.876c1.502,1.28,1.766,5.12-0.213,6.136
			c-0.853,0.435-2.048,0.572-2.253,1.485c-0.205,0.913,0.649,1.459,1.203,2.091c1.335,1.714,1.029,4.186-0.686,5.521
			c-0.163,0.127-0.337,0.241-0.518,0.341c-0.478,0.222-1.058,0.41-1.237,0.913c-0.078,0.37-0.039,0.754,0.111,1.101
			c0.197,0.69,0.263,1.411,0.196,2.125c-0.003,0.245-0.094,0.482-0.256,0.666c-0.187,0.124-0.408,0.187-0.632,0.179
			c-2.859,0.128-4.267-0.853-5.974,1.604c-0.155,0.248-0.358,0.462-0.597,0.632c-0.248,0.121-0.518,0.188-0.794,0.196
			c-1.963,0.162-3.251-1.067-5.044-1.297c-2.492-0.316-3.021,0.973-5.214,1.997C176.3,179.002,174.619,178.004,173.97,175.648z"/>
		<path style="fill:#E0E0E0;" d="M201.363,176.135c-0.168-0.671-0.271-1.357-0.307-2.048c-0.247-4.267-4.267-3.567-7.74-4.139
			c-2.688-0.452,4.438-7.237-0.99-9.43c-1.054-0.291-1.977-0.936-2.611-1.826c-0.683-1.263,0-2.927,1.178-3.755
			c1.238-0.744,2.67-1.104,4.113-1.033c0.853-1.075,0.171-2.697-0.683-3.789c-0.853-1.092-1.912-2.347-1.587-3.704
			c0.495-2.048,3.354-2.116,5.41-1.707c0.768-1.229,0.751-2.773,1.118-4.182c0.367-1.408,1.493-2.876,2.927-2.697
			c1.434,0.179,2.193,1.707,3.525,2.006c1.545,0.367,2.884-0.999,4.096-2.023c1.212-1.024,3.328-1.664,4.164-0.316
			c0.504,0.853,0.205,1.937,0.717,2.731c0.904,1.382,3.038,0.52,4.369-0.452c1.331-0.973,3.413-1.869,4.369-0.512
			c0.231,0.448,0.403,0.924,0.512,1.417c0.632,1.818,2.56,2.714,4.105,3.874c1.545,1.161,2.739,3.473,1.442,4.89
			c-0.632,0.7-1.75,0.981-2.065,1.869c-0.401,1.118,0.742,2.116,1.638,2.876c1.502,1.28,1.767,5.12-0.213,6.136
			c-0.853,0.435-2.048,0.572-2.253,1.485c-0.205,0.913,0.649,1.459,1.203,2.091c1.335,1.714,1.029,4.186-0.686,5.521
			c-0.163,0.127-0.336,0.241-0.518,0.341c-0.478,0.222-1.058,0.41-1.237,0.913c-0.078,0.37-0.039,0.754,0.111,1.101
			c0.197,0.69,0.263,1.411,0.196,2.125c-0.003,0.245-0.094,0.482-0.256,0.666c-0.187,0.124-0.407,0.187-0.632,0.179
			c-2.859,0.128-4.267-0.853-5.974,1.604c-0.156,0.248-0.359,0.462-0.597,0.632c-0.248,0.121-0.518,0.188-0.794,0.196
			c-1.963,0.162-3.251-1.067-5.044-1.297c-2.492-0.316-3.021,0.973-5.214,1.997C203.693,179.489,202.012,178.49,201.363,176.135z"/>
		<path style="fill:#E0E0E0;" d="M190.159,131.004c-0.173-0.67-0.276-1.357-0.307-2.048c-0.247-4.267-4.267-3.559-7.74-4.139
			c-2.688-0.444,4.438-7.237-0.99-9.387c-1.054-0.291-1.976-0.936-2.611-1.826c-0.683-1.263,0-2.927,1.178-3.755
			c1.238-0.744,2.67-1.104,4.113-1.033c0.853-1.075,0.171-2.697-0.691-3.789c-0.862-1.092-1.903-2.347-1.579-3.704
			c0.495-2.048,3.345-2.116,5.41-1.707c0.768-1.229,0.751-2.773,1.118-4.182c0.367-1.408,1.485-2.876,2.927-2.697
			s2.193,1.707,3.524,2.006c1.545,0.367,2.884-0.998,4.096-2.023c1.212-1.024,3.328-1.664,4.165-0.316
			c0.503,0.811,0.205,1.937,0.717,2.731c0.905,1.382,3.038,0.521,4.369-0.452c1.331-0.973,3.414-1.869,4.369-0.512
			c0.232,0.451,0.405,0.93,0.512,1.425c0.632,1.809,2.56,2.705,4.105,3.866s2.739,3.473,1.442,4.89
			c-0.632,0.7-1.749,0.981-2.065,1.869c-0.401,1.118,0.742,2.116,1.638,2.876c1.502,1.28,1.767,5.12-0.213,6.136
			c-0.853,0.435-2.048,0.572-2.253,1.485s0.649,1.459,1.203,2.091c1.335,1.714,1.028,4.186-0.686,5.521
			c-0.163,0.127-0.337,0.242-0.518,0.341c-0.478,0.222-1.058,0.41-1.237,0.913c-0.078,0.37-0.039,0.754,0.111,1.101
			c0.197,0.69,0.263,1.41,0.196,2.125c-0.002,0.247-0.096,0.485-0.264,0.666c-0.181,0.129-0.401,0.192-0.623,0.179
			c-2.859,0.128-4.267-0.853-5.974,1.604c-0.153,0.25-0.357,0.465-0.597,0.632c-0.248,0.121-0.518,0.188-0.794,0.196
			c-1.963,0.162-3.251-1.067-5.043-1.297c-2.492-0.316-3.021,0.973-5.223,2.006C192.489,134.357,190.808,133.359,190.159,131.004z"
			/>
		<path style="fill:#E0E0E0;" d="M211.86,141.449c-0.176-0.667-0.279-1.351-0.307-2.04c-0.256-4.267-4.267-3.567-7.74-4.148
			c-2.688-0.444,4.429-7.237-0.99-9.43c-1.057-0.29-1.982-0.935-2.62-1.826c-0.683-1.263,0-2.927,1.186-3.755
			c1.238-0.745,2.67-1.105,4.113-1.033c0.853-1.075,0.162-2.688-0.691-3.789c-0.853-1.101-1.903-2.347-1.579-3.704
			c0.486-2.04,3.345-2.116,5.41-1.707c0.76-1.237,0.743-2.782,1.118-4.181c0.375-1.4,1.485-2.884,2.927-2.705
			s2.185,1.707,3.516,2.014c1.545,0.358,2.884-1.007,4.096-2.031c1.212-1.024,3.337-1.664,4.173-0.316
			c0.495,0.853,0.196,1.937,0.717,2.731c0.853,1.382,3.038,0.529,4.361-0.452c1.323-0.981,3.414-1.86,4.369-0.504
			c0.236,0.447,0.411,0.923,0.52,1.417c0.623,1.809,2.56,2.714,4.105,3.874s2.731,3.465,1.442,4.881
			c-0.64,0.7-1.758,0.981-2.074,1.877c-0.393,1.109,0.742,2.108,1.647,2.876c1.493,1.271,1.767,5.12-0.213,6.127
			c-0.853,0.435-2.057,0.572-2.253,1.485c-0.196,0.913,0.649,1.459,1.203,2.091c1.332,1.723,1.016,4.199-0.707,5.531
			c-0.16,0.123-0.328,0.234-0.505,0.332c-0.469,0.23-1.058,0.418-1.229,0.913c-0.078,0.372-0.039,0.76,0.111,1.109
			c0.19,0.688,0.254,1.405,0.188,2.116c0.005,0.247-0.087,0.486-0.256,0.666c-0.185,0.128-0.407,0.191-0.632,0.179
			c-2.859,0.128-4.267-0.853-5.974,1.604c-0.151,0.251-0.355,0.467-0.597,0.632c-0.244,0.122-0.512,0.189-0.785,0.196
			c-1.971,0.162-3.251-1.067-5.052-1.297c-2.492-0.316-3.021,0.973-5.214,2.005C214.182,144.811,212.535,143.804,211.86,141.449z"/>
		<path style="fill:#E0E0E0;" d="M233.784,136.627c-0.172-0.67-0.275-1.357-0.307-2.048c-0.247-4.267-4.267-3.567-7.74-4.139
			c-2.688-0.452,4.438-7.245-0.99-9.387c-1.054-0.291-1.976-0.936-2.611-1.826c-0.683-1.263,0-2.927,1.178-3.755
			c1.237-0.748,2.67-1.108,4.113-1.033c0.853-1.075,0.171-2.697-0.683-3.798c-0.853-1.101-1.912-2.347-1.587-3.695
			c0.495-2.048,3.354-2.116,5.41-1.707c0.768-1.229,0.751-2.773,1.118-4.181c0.367-1.408,1.493-2.876,2.927-2.697
			s2.193,1.707,3.525,2.005c1.545,0.367,2.884-0.998,4.096-2.022c1.212-1.024,3.328-1.707,4.164-0.316
			c0.504,0.811,0.205,1.937,0.717,2.731c0.905,1.382,3.038,0.521,4.369-0.452c1.331-0.973,3.414-1.869,4.369-0.512
			c0.232,0.448,0.404,0.924,0.512,1.417c0.632,1.809,2.56,2.714,4.105,3.874c1.545,1.161,2.739,3.473,1.442,4.89
			c-0.632,0.7-1.749,0.981-2.065,1.869c-0.401,1.118,0.742,2.108,1.638,2.876c1.502,1.271,1.767,5.12-0.213,6.127
			c-0.853,0.444-2.048,0.572-2.253,1.494c-0.205,0.922,0.649,1.459,1.203,2.091c1.335,1.714,1.029,4.186-0.685,5.521
			c-0.163,0.127-0.337,0.241-0.518,0.341c-0.478,0.222-1.058,0.41-1.237,0.905c-0.078,0.372-0.039,0.76,0.111,1.109
			c0.197,0.69,0.264,1.411,0.196,2.125c-0.003,0.245-0.094,0.482-0.256,0.666c-0.186,0.126-0.408,0.186-0.632,0.171
			c-2.859,0.128-4.267-0.853-5.974,1.604c-0.155,0.25-0.358,0.468-0.597,0.64c-0.248,0.121-0.518,0.188-0.794,0.196
			c-1.963,0.162-3.251-1.067-5.044-1.297c-2.492-0.316-3.021,0.964-5.214,1.997C236.114,139.981,234.432,138.974,233.784,136.627z"
			/>
		<path style="fill:#E0E0E0;" d="M234.074,160.078c-0.12-0.53-0.189-1.07-0.205-1.613c-0.196-3.337-3.414-2.808-6.093-3.26
			c-2.116-0.358,3.49-5.701-0.777-7.433c-0.831-0.225-1.558-0.732-2.057-1.434c-0.449-1.082-0.057-2.33,0.93-2.961
			c0.971-0.597,2.096-0.894,3.234-0.853c0.7-0.853,0.136-2.116-0.538-2.987c-0.674-0.87-1.502-1.843-1.246-2.91
			c0.384-1.613,2.637-1.664,4.267-1.357c0.597-0.973,0.589-2.185,0.853-3.294c0.265-1.109,1.169-2.261,2.304-2.125
			c1.135,0.137,1.707,1.34,2.773,1.587c1.212,0.282,2.27-0.794,3.226-1.596c0.956-0.802,2.62-1.314,3.277-0.256
			c0.401,0.64,0.162,1.528,0.572,2.159c0.708,1.084,2.389,0.41,3.414-0.358c1.024-0.768,2.714-1.468,3.413-0.401
			c0.183,0.353,0.318,0.729,0.401,1.118c0.495,1.425,2.04,2.133,3.234,3.047c1.195,0.913,2.151,2.731,1.135,3.849
			c-0.495,0.546-1.383,0.768-1.63,1.476c-0.307,0.853,0.589,1.656,1.297,2.261c1.178,1.007,1.391,4.002-0.171,4.822
			c-0.657,0.35-1.613,0.452-1.775,1.178c-0.162,0.725,0.512,1.144,0.947,1.647c1.05,1.345,0.811,3.286-0.534,4.336
			c-0.13,0.102-0.268,0.193-0.413,0.272c-0.375,0.179-0.853,0.333-0.973,0.725c-0.057,0.287-0.027,0.584,0.085,0.853
			c0.153,0.54,0.205,1.105,0.154,1.664c0.002,0.196-0.072,0.385-0.205,0.529c-0.145,0.098-0.319,0.146-0.495,0.137
			c-2.253,0.102-3.337-0.691-4.711,1.263c-0.122,0.197-0.281,0.368-0.469,0.503c-0.195,0.094-0.407,0.146-0.623,0.154
			c-1.545,0.128-2.56-0.853-3.977-1.024c-1.963-0.248-2.372,0.768-4.105,1.579C235.9,162.732,234.586,161.93,234.074,160.078z"/>
		<path style="fill:#E0E0E0;" d="M246.363,151.98c-0.177-0.669-0.28-1.356-0.307-2.048c-0.256-4.267-4.267-3.567-7.74-4.139
			c-2.688-0.452,4.429-7.237-0.99-9.43c-1.046-0.286-1.963-0.917-2.603-1.792c-0.683-1.263,0-2.927,1.178-3.755
			c1.242-0.744,2.676-1.103,4.122-1.033c0.853-1.075,0.162-2.697-0.691-3.789c-0.853-1.092-1.903-2.347-1.579-3.704
			c0.486-2.048,3.345-2.116,5.41-1.707c0.76-1.229,0.742-2.773,1.118-4.182c0.376-1.408,1.485-2.876,2.927-2.697
			c1.442,0.179,2.185,1.707,3.516,2.005c1.545,0.367,2.885-0.998,4.096-2.022c1.212-1.024,3.337-1.664,4.165-0.316
			c0.503,0.853,0.205,1.937,0.725,2.731c0.896,1.382,3.038,0.521,4.361-0.452c1.323-0.973,3.414-1.869,4.369-0.512
			c0.235,0.447,0.407,0.923,0.512,1.417c0.632,1.818,2.56,2.714,4.113,3.874c1.553,1.161,2.731,3.473,1.442,4.89
			c-0.64,0.7-1.758,0.981-2.074,1.869c-0.392,1.118,0.743,2.116,1.639,2.876c1.502,1.28,1.775,5.12-0.205,6.136
			c-0.853,0.435-2.057,0.572-2.253,1.485c-0.196,0.913,0.649,1.459,1.195,2.091c1.335,1.714,1.029,4.186-0.685,5.521
			c-0.163,0.127-0.337,0.241-0.518,0.341c-0.469,0.222-1.058,0.41-1.237,0.913c-0.07,0.371-0.029,0.754,0.119,1.101
			c0.19,0.691,0.253,1.411,0.188,2.125c0.001,0.246-0.09,0.484-0.256,0.666c-0.187,0.124-0.408,0.187-0.632,0.179
			c-2.859,0.128-4.267-0.853-5.974,1.604c-0.153,0.25-0.357,0.465-0.597,0.632c-0.245,0.121-0.512,0.188-0.785,0.196
			c-1.971,0.162-3.251-1.067-5.052-1.297c-2.492-0.316-3.021,0.973-5.214,1.997C248.684,155.333,247.011,154.335,246.363,151.98z"/>
		<path style="fill:#E0E0E0;" d="M211.86,115.651c-0.176-0.67-0.279-1.356-0.307-2.048c-0.256-4.267-4.267-3.567-7.74-4.139
			c-2.688-0.452,4.429-7.245-0.99-9.43c-1.056-0.293-1.98-0.937-2.62-1.826c-0.683-1.263,0-2.927,1.186-3.755
			c1.236-0.749,2.67-1.109,4.113-1.033c0.853-1.075,0.162-2.697-0.691-3.798c-0.853-1.101-1.903-2.347-1.579-3.695
			c0.486-2.048,3.345-2.116,5.41-1.707c0.76-1.229,0.743-2.773,1.118-4.182c0.375-1.408,1.485-2.876,2.927-2.697
			s2.185,1.707,3.516,2.006c1.545,0.367,2.884-0.999,4.096-2.023c1.212-1.024,3.337-1.707,4.173-0.316
			c0.495,0.853,0.196,1.937,0.717,2.731c0.853,1.382,3.038,0.521,4.361-0.452c1.323-0.973,3.414-1.869,4.369-0.512
			c0.235,0.447,0.41,0.924,0.52,1.417c0.623,1.809,2.56,2.714,4.105,3.874c1.545,1.161,2.731,3.473,1.442,4.89
			c-0.64,0.7-1.758,0.981-2.074,1.869c-0.393,1.118,0.742,2.116,1.647,2.876c1.493,1.28,1.767,5.12-0.213,6.127
			c-0.853,0.444-2.057,0.572-2.253,1.493c-0.196,0.922,0.649,1.459,1.203,2.091c1.332,1.722,1.016,4.199-0.707,5.531
			c-0.16,0.123-0.328,0.234-0.505,0.332c-0.469,0.222-1.058,0.41-1.229,0.905c-0.078,0.372-0.039,0.76,0.111,1.109
			c0.19,0.691,0.253,1.411,0.188,2.125c0.001,0.246-0.09,0.484-0.256,0.666c-0.187,0.124-0.408,0.187-0.632,0.179
			c-2.859,0.119-4.267-0.853-5.974,1.596c-0.153,0.252-0.356,0.47-0.597,0.64c-0.244,0.122-0.512,0.189-0.785,0.196
			c-1.971,0.162-3.251-1.067-5.052-1.297c-2.492-0.316-3.021,0.964-5.214,1.997C214.182,119.005,212.535,117.998,211.86,115.651z"/>
		<path style="fill:#E0E0E0;" d="M183.69,117.085c-0.177-0.666-0.28-1.351-0.307-2.039c-0.256-4.267-4.267-3.567-7.74-4.139
			c-2.688-0.452,4.429-7.245-0.99-9.43c-1.056-0.293-1.98-0.937-2.62-1.826c-0.683-1.263,0-2.927,1.186-3.763
			c1.24-0.742,2.671-1.101,4.113-1.033c0.853-1.075,0.162-2.688-0.691-3.789c-0.853-1.101-1.903-2.347-1.579-3.695
			c0.486-2.048,3.345-2.116,5.41-1.707c0.76-1.237,0.742-2.782,1.118-4.181c0.376-1.4,1.485-2.876,2.927-2.705
			c1.442,0.171,2.185,1.707,3.516,2.014c1.545,0.367,2.884-0.998,4.096-2.031s3.337-1.707,4.165-0.307
			c0.503,0.802,0.205,1.929,0.725,2.731c0.896,1.374,3.038,0.521,4.361-0.461c1.323-0.981,3.413-1.86,4.369-0.504
			c0.236,0.446,0.408,0.923,0.512,1.417c0.632,1.809,2.56,2.714,4.113,3.874c1.553,1.161,2.731,3.473,1.442,4.89
			c-0.64,0.691-1.758,0.981-2.074,1.869c-0.393,1.109,0.742,2.108,1.639,2.876c1.502,1.271,1.775,5.12-0.205,6.127
			c-0.853,0.444-2.057,0.572-2.253,1.493c-0.196,0.922,0.648,1.459,1.203,2.091c1.33,1.718,1.016,4.189-0.702,5.519
			c-0.161,0.125-0.331,0.237-0.51,0.335c-0.469,0.23-1.058,0.418-1.229,0.913c-0.078,0.372-0.039,0.76,0.111,1.109
			c0.19,0.691,0.253,1.411,0.188,2.125c0.001,0.246-0.09,0.484-0.256,0.666c-0.186,0.126-0.408,0.186-0.631,0.171
			c-2.859,0.128-4.267-0.853-5.974,1.604c-0.151,0.251-0.355,0.467-0.597,0.632c-0.241,0.13-0.511,0.197-0.785,0.196
			c-1.971,0.162-3.251-1.058-5.052-1.289c-2.492-0.316-3.021,0.964-5.214,1.997C186.012,120.447,184.373,119.44,183.69,117.085z"/>
		<path style="fill:#E0E0E0;" d="M166.58,128.597c-0.177-0.667-0.28-1.351-0.307-2.04c-0.256-4.267-4.267-3.567-7.74-4.139
			c-2.688-0.452,4.429-7.245-0.99-9.438c-1.057-0.284-1.983-0.927-2.62-1.818c-0.683-1.263,0-2.936,1.178-3.763
			c1.247-0.726,2.681-1.071,4.122-0.99c0.853-1.075,0.162-2.688-0.691-3.789c-0.853-1.101-1.903-2.347-1.579-3.695
			c0.486-2.048,3.345-2.125,5.41-1.707c0.759-1.237,0.742-2.782,1.118-4.182c0.376-1.4,1.485-2.876,2.927-2.705
			s2.185,1.707,3.516,2.014c1.545,0.367,2.884-0.998,4.096-2.031s3.337-1.707,4.165-0.316c0.503,0.811,0.205,1.937,0.725,2.739
			c0.853,1.374,3.038,0.521,4.361-0.461c1.323-0.981,3.413-1.86,4.369-0.503c0.236,0.446,0.408,0.923,0.512,1.417
			c0.632,1.809,2.56,2.714,4.113,3.874c1.553,1.161,2.731,3.465,1.442,4.881c-0.64,0.7-1.758,0.99-2.074,1.877
			c-0.392,1.109,0.743,2.108,1.639,2.876c1.502,1.271,1.775,5.12-0.205,6.127c-0.853,0.435-2.057,0.572-2.253,1.493
			c-0.196,0.922,0.649,1.459,1.195,2.091c1.334,1.709,1.029,4.176-0.68,5.51c-0.165,0.129-0.34,0.244-0.523,0.344
			c-0.469,0.23-1.058,0.418-1.237,0.913c-0.07,0.373-0.029,0.759,0.119,1.109c0.19,0.688,0.254,1.405,0.188,2.116
			c0.002,0.249-0.089,0.49-0.256,0.674c-0.188,0.122-0.408,0.181-0.632,0.171c-2.859,0.128-4.267-0.853-5.974,1.604
			c-0.151,0.251-0.355,0.467-0.597,0.632c-0.243,0.125-0.512,0.192-0.785,0.196c-1.971,0.162-3.251-1.058-5.052-1.289
			c-2.492-0.324-3.021,0.964-5.214,1.997C168.901,132.011,167.229,130.969,166.58,128.597z"/>
		<path style="fill:#EBEBEB;" d="M171.769,143.19c0,0,7.151,10.113,9.618,13.321c2.466,3.209,14.806,23.195,16.487,36.414
			c0.179,1.417,0.358,2.629,0.529,3.687c-5.308,35.031-4.472,99.12-4.267,110.086h16.812c0.154-12.374,1.579-125.447,2.108-128.92
			c0.555-3.661,7.587-17.571,18.442-23.289c10.855-5.718,20.242-24.637,20.242-24.637h-3.465c0,0-6.409,11.597-15.54,18.015
			c-1.317,0.902-2.691,1.717-4.113,2.441c0.333-10.454-3.627-20.481-3.627-20.481l-1.869,1.707
			c2.56,10.326,2.193,16.94,1.425,20.746c-3.447,1.616-6.63,3.745-9.438,6.315c-9.473-12.314-14.798-40.476-14.798-40.476
			l-2.424,1.323c0.689,5.816,1.735,11.585,3.132,17.272c1.775,7.288,6.998,21.01,9.387,27.248
			c-2.902,4.179-5.302,8.684-7.151,13.424c-0.255-0.403-0.562-0.77-0.913-1.092c-6.17-5.581-17.767-31.934-17.767-31.934
			c-2.799-6.127,1.485-22.188,1.485-22.188h-3.243l-1.434,14.106l-8.107-8.884l-1.51,1.203l8.636,11.094l4.438,14.072
			l-11.563-12.792L171.769,143.19z"/>
	</g>
	<g>
		<path style="fill:#E0E0E0;" d="M41.616,193.758c-0.132-0.5-0.209-1.013-0.229-1.53c-0.191-3.188-3.188-2.659-5.783-3.092
			c-2.008-0.332,3.309-5.407-0.74-7.014c-0.789-0.219-1.479-0.7-1.957-1.364c-0.51-0.944,0-2.187,0.886-2.805
			c0.918-0.566,1.983-0.845,3.061-0.803c0.638-0.803,0.121-2.015-0.516-2.831s-1.422-1.753-1.18-2.767
			c0.363-1.53,2.5-1.581,4.042-1.275c0.567-0.918,0.555-2.072,0.835-3.124c0.281-1.052,1.11-2.149,2.187-2.015
			c1.078,0.134,1.632,1.275,2.627,1.505c1.154,0.268,2.155-0.752,3.061-1.518c0.905-0.765,2.493-1.243,3.112-0.236
			c0.376,0.606,0.153,1.447,0.542,2.04c0.638,1.033,2.27,0.389,3.258-0.338c0.988-0.727,2.551-1.396,3.265-0.383
			c0.176,0.335,0.305,0.694,0.383,1.065c0.472,1.352,1.913,2.021,3.073,2.888c1.16,0.867,2.04,2.595,1.078,3.653
			c-0.478,0.523-1.313,0.733-1.549,1.396c-0.293,0.835,0.555,1.581,1.224,2.149c1.122,0.956,1.326,3.826-0.153,4.584
			c-0.638,0.325-1.537,0.427-1.683,1.11c-0.147,0.682,0.485,1.09,0.893,1.562c0.998,1.281,0.768,3.128-0.512,4.125
			c-0.122,0.095-0.251,0.18-0.387,0.255c-0.351,0.166-0.791,0.306-0.918,0.682c-0.058,0.276-0.029,0.563,0.083,0.822
			c0.142,0.517,0.189,1.054,0.14,1.588c0.001,0.184-0.067,0.361-0.191,0.497c-0.138,0.096-0.304,0.143-0.472,0.134
			c-2.136,0.096-3.188-0.638-4.463,1.199c-0.113,0.188-0.265,0.349-0.446,0.472c-0.183,0.09-0.383,0.14-0.587,0.147
			c-1.473,0.121-2.429-0.797-3.775-0.969c-1.862-0.236-2.257,0.727-3.896,1.498C43.35,196.264,42.1,195.518,41.616,193.758z"/>
		<path style="fill:#E0E0E0;" d="M66.221,191.099c-0.126-0.502-0.203-1.014-0.23-1.53c-0.185-3.188-3.188-2.665-5.783-3.092
			c-2.008-0.338,3.316-5.407-0.74-7.046c-0.788-0.217-1.477-0.699-1.951-1.365c-0.51-0.944,0-2.187,0.88-2.805
			c0.925-0.556,1.995-0.825,3.073-0.772c0.638-0.803,0.127-2.015-0.51-2.831c-0.638-0.816-1.428-1.754-1.186-2.767
			c0.37-1.53,2.506-1.581,4.042-1.275c0.574-0.918,0.561-2.072,0.835-3.124c0.274-1.052,1.116-2.149,2.187-2.015
			c1.071,0.134,1.639,1.275,2.633,1.498c1.154,0.274,2.155-0.746,3.061-1.511c0.905-0.765,2.487-1.243,3.112-0.236
			c0.376,0.638,0.153,1.447,0.536,2.04c0.676,1.033,2.27,0.389,3.264-0.338c0.995-0.727,2.55-1.396,3.265-0.382
			c0.173,0.335,0.301,0.691,0.382,1.058c0.472,1.358,1.913,2.028,3.067,2.895c1.154,0.867,2.047,2.595,1.078,3.654
			c-0.472,0.523-1.307,0.733-1.543,1.396c-0.3,0.835,0.555,1.581,1.224,2.149c1.122,0.956,1.32,3.826-0.159,4.584
			c-0.638,0.325-1.53,0.427-1.683,1.109c-0.153,0.682,0.485,1.09,0.899,1.562c0.998,1.281,0.769,3.128-0.512,4.125
			c-0.122,0.095-0.251,0.18-0.387,0.255c-0.357,0.166-0.791,0.306-0.924,0.682c-0.058,0.276-0.029,0.563,0.083,0.822
			c0.147,0.516,0.197,1.054,0.147,1.588c-0.002,0.183-0.07,0.36-0.191,0.497c-0.139,0.093-0.304,0.139-0.472,0.134
			c-2.136,0.096-3.188-0.638-4.463,1.199c-0.116,0.185-0.268,0.346-0.446,0.472c-0.185,0.09-0.387,0.14-0.593,0.147
			c-1.466,0.121-2.429-0.797-3.768-0.969c-1.862-0.236-2.257,0.727-3.896,1.492C67.962,193.605,66.706,192.859,66.221,191.099z"/>
		<path style="fill:#E0E0E0;" d="M68.593,175.426c-0.129-0.501-0.206-1.014-0.229-1.53c-0.185-3.188-3.188-2.659-5.783-3.092
			c-2.008-0.332,3.316-5.407-0.74-7.014c-0.788-0.217-1.477-0.699-1.951-1.365c-0.51-0.944,0-2.187,0.88-2.805
			c0.925-0.556,1.995-0.825,3.073-0.771c0.638-0.803,0.127-2.015-0.516-2.831c-0.644-0.816-1.422-1.753-1.18-2.767
			c0.37-1.53,2.499-1.581,4.042-1.275c0.574-0.918,0.561-2.072,0.835-3.124c0.274-1.052,1.109-2.149,2.187-2.015
			c1.077,0.134,1.639,1.275,2.633,1.498c1.154,0.274,2.155-0.746,3.06-1.511c0.905-0.765,2.487-1.243,3.112-0.236
			c0.376,0.606,0.153,1.447,0.536,2.04c0.676,1.033,2.27,0.389,3.265-0.338c0.995-0.727,2.55-1.396,3.265-0.383
			c0.174,0.337,0.302,0.695,0.383,1.065c0.472,1.352,1.913,2.021,3.067,2.888c1.154,0.867,2.047,2.595,1.077,3.654
			c-0.472,0.523-1.307,0.733-1.543,1.396c-0.3,0.835,0.555,1.581,1.224,2.149c1.122,0.956,1.32,3.826-0.159,4.584
			c-0.638,0.325-1.53,0.427-1.683,1.109c-0.153,0.682,0.485,1.09,0.899,1.562c0.998,1.281,0.768,3.128-0.512,4.125
			c-0.122,0.095-0.251,0.18-0.387,0.255c-0.357,0.166-0.791,0.306-0.924,0.682c-0.058,0.276-0.029,0.564,0.083,0.823
			c0.147,0.516,0.197,1.054,0.147,1.588c-0.001,0.185-0.072,0.362-0.198,0.497c-0.135,0.097-0.3,0.144-0.465,0.134
			c-2.136,0.096-3.188-0.638-4.463,1.199c-0.115,0.186-0.267,0.347-0.446,0.472c-0.185,0.09-0.387,0.14-0.593,0.147
			c-1.466,0.121-2.429-0.797-3.768-0.969c-1.862-0.236-2.257,0.727-3.902,1.498C70.334,177.932,69.078,177.186,68.593,175.426z"/>
		<path style="fill:#E0E0E0;" d="M84.807,183.231c-0.132-0.498-0.209-1.009-0.229-1.524c-0.191-3.188-3.188-2.665-5.783-3.099
			c-2.008-0.332,3.309-5.407-0.74-7.046c-0.79-0.216-1.481-0.698-1.957-1.365c-0.51-0.944,0-2.187,0.886-2.805
			c0.925-0.557,1.995-0.825,3.073-0.771c0.638-0.803,0.121-2.008-0.516-2.831c-0.638-0.822-1.422-1.753-1.18-2.767
			c0.363-1.524,2.499-1.581,4.042-1.275c0.567-0.924,0.555-2.079,0.835-3.124c0.281-1.046,1.109-2.155,2.187-2.021
			c1.077,0.134,1.632,1.275,2.627,1.505c1.154,0.268,2.155-0.752,3.061-1.518c0.905-0.765,2.493-1.243,3.118-0.236
			c0.37,0.638,0.147,1.447,0.536,2.04c0.638,1.033,2.27,0.395,3.258-0.338c0.988-0.733,2.55-1.39,3.264-0.376
			c0.177,0.334,0.308,0.69,0.389,1.058c0.465,1.352,1.913,2.028,3.067,2.895c1.154,0.867,2.04,2.589,1.077,3.647
			c-0.478,0.523-1.313,0.733-1.549,1.403c-0.293,0.829,0.555,1.575,1.231,2.149c1.116,0.95,1.32,3.826-0.159,4.578
			c-0.638,0.325-1.537,0.427-1.683,1.109c-0.147,0.682,0.485,1.09,0.899,1.562c0.995,1.287,0.759,3.137-0.528,4.132
			c-0.119,0.092-0.245,0.175-0.377,0.248c-0.351,0.172-0.791,0.312-0.918,0.682c-0.058,0.278-0.029,0.568,0.083,0.829
			c0.142,0.514,0.19,1.05,0.14,1.581c0.003,0.184-0.065,0.363-0.191,0.497c-0.138,0.096-0.304,0.143-0.472,0.134
			c-2.136,0.096-3.188-0.638-4.463,1.199c-0.113,0.188-0.265,0.349-0.446,0.472c-0.182,0.091-0.383,0.141-0.587,0.147
			c-1.473,0.121-2.429-0.797-3.775-0.969c-1.862-0.236-2.257,0.727-3.896,1.498C86.542,185.743,85.311,184.991,84.807,183.231z"/>
		<path style="fill:#E0E0E0;" d="M101.188,179.628c-0.129-0.501-0.205-1.014-0.229-1.53c-0.185-3.188-3.188-2.665-5.783-3.092
			c-2.009-0.338,3.315-5.413-0.74-7.014c-0.788-0.217-1.477-0.699-1.951-1.365c-0.51-0.944,0-2.187,0.88-2.805
			c0.924-0.559,1.995-0.828,3.073-0.771c0.638-0.803,0.128-2.015-0.51-2.837c-0.638-0.823-1.428-1.754-1.186-2.761
			c0.37-1.53,2.506-1.581,4.042-1.275c0.574-0.918,0.561-2.072,0.835-3.124c0.274-1.052,1.116-2.149,2.187-2.015
			c1.071,0.134,1.639,1.275,2.633,1.498c1.154,0.274,2.155-0.746,3.061-1.511c0.905-0.765,2.487-1.275,3.111-0.236
			c0.376,0.606,0.153,1.447,0.536,2.04c0.676,1.033,2.27,0.389,3.265-0.338c0.995-0.727,2.55-1.396,3.264-0.383
			c0.174,0.335,0.302,0.69,0.383,1.059c0.472,1.352,1.913,2.028,3.067,2.895c1.154,0.867,2.047,2.595,1.078,3.654
			c-0.472,0.523-1.307,0.733-1.543,1.396c-0.3,0.835,0.555,1.575,1.224,2.149c1.122,0.95,1.32,3.826-0.16,4.578
			c-0.638,0.331-1.53,0.427-1.683,1.116c-0.153,0.689,0.485,1.09,0.899,1.562c0.998,1.281,0.768,3.128-0.512,4.125
			c-0.122,0.095-0.251,0.18-0.387,0.255c-0.357,0.166-0.791,0.306-0.925,0.676c-0.058,0.278-0.029,0.568,0.083,0.829
			c0.147,0.515,0.197,1.054,0.147,1.588c-0.002,0.183-0.07,0.36-0.191,0.497c-0.139,0.094-0.305,0.139-0.472,0.128
			c-2.136,0.096-3.188-0.638-4.463,1.199c-0.116,0.187-0.268,0.35-0.446,0.478c-0.185,0.09-0.387,0.14-0.593,0.147
			c-1.466,0.121-2.429-0.797-3.768-0.969c-1.862-0.236-2.257,0.721-3.896,1.492C102.928,182.134,101.672,181.382,101.188,179.628z"
			/>
		<path style="fill:#E0E0E0;" d="M101.404,197.15c-0.09-0.396-0.141-0.799-0.153-1.205c-0.147-2.493-2.55-2.098-4.552-2.436
			c-1.581-0.268,2.608-4.259-0.58-5.554c-0.621-0.168-1.164-0.547-1.537-1.071c-0.336-0.808-0.043-1.741,0.695-2.212
			c0.725-0.446,1.566-0.668,2.416-0.638c0.523-0.638,0.102-1.581-0.402-2.232c-0.504-0.65-1.122-1.377-0.931-2.174
			c0.287-1.205,1.97-1.243,3.188-1.014c0.446-0.727,0.44-1.632,0.638-2.461c0.198-0.829,0.873-1.69,1.721-1.588
			c0.848,0.102,1.275,1.001,2.072,1.186c0.905,0.21,1.696-0.593,2.41-1.192c0.714-0.599,1.958-0.982,2.448-0.191
			c0.3,0.478,0.121,1.141,0.427,1.613c0.529,0.81,1.785,0.306,2.55-0.268c0.765-0.574,2.028-1.097,2.55-0.3
			c0.137,0.264,0.237,0.545,0.3,0.835c0.37,1.065,1.524,1.594,2.417,2.276c0.893,0.682,1.607,2.04,0.848,2.876
			c-0.37,0.408-1.033,0.574-1.218,1.103c-0.229,0.638,0.44,1.237,0.969,1.69c0.88,0.752,1.039,2.99-0.127,3.602
			c-0.491,0.261-1.205,0.338-1.326,0.88c-0.121,0.542,0.383,0.854,0.708,1.23c0.784,1.005,0.606,2.455-0.399,3.24
			c-0.097,0.076-0.2,0.144-0.309,0.203c-0.281,0.134-0.638,0.249-0.727,0.542c-0.042,0.214-0.02,0.436,0.064,0.638
			c0.114,0.404,0.153,0.825,0.115,1.243c0.001,0.146-0.053,0.288-0.153,0.395c-0.109,0.074-0.239,0.109-0.37,0.102
			c-1.683,0.077-2.493-0.516-3.52,0.944c-0.091,0.147-0.21,0.275-0.351,0.376c-0.146,0.07-0.304,0.109-0.465,0.115
			c-1.154,0.096-1.913-0.638-2.971-0.765c-1.466-0.185-1.772,0.574-3.067,1.18C102.769,199.133,101.787,198.533,101.404,197.15z"/>
		<path style="fill:#E0E0E0;" d="M110.586,191.099c-0.132-0.5-0.209-1.013-0.229-1.53c-0.191-3.188-3.188-2.665-5.783-3.092
			c-2.008-0.338,3.309-5.407-0.74-7.046c-0.781-0.213-1.467-0.685-1.945-1.339c-0.51-0.944,0-2.187,0.88-2.805
			c0.928-0.556,1.999-0.824,3.08-0.771c0.638-0.803,0.121-2.015-0.516-2.831c-0.638-0.816-1.422-1.753-1.18-2.767
			c0.364-1.53,2.499-1.581,4.043-1.275c0.567-0.918,0.555-2.072,0.835-3.124c0.281-1.052,1.109-2.149,2.187-2.015
			c1.078,0.134,1.632,1.275,2.627,1.498c1.154,0.274,2.155-0.746,3.06-1.511c0.905-0.765,2.493-1.243,3.112-0.236
			c0.376,0.638,0.153,1.447,0.542,2.04c0.67,1.033,2.27,0.389,3.258-0.338c0.988-0.727,2.55-1.396,3.265-0.382
			c0.175,0.334,0.304,0.69,0.382,1.058c0.472,1.358,1.913,2.028,3.073,2.895c1.16,0.867,2.04,2.595,1.078,3.653
			c-0.478,0.523-1.313,0.733-1.549,1.396c-0.293,0.835,0.555,1.581,1.224,2.149c1.122,0.956,1.326,3.826-0.153,4.584
			c-0.638,0.325-1.537,0.427-1.683,1.109c-0.147,0.682,0.485,1.09,0.893,1.562c0.998,1.281,0.769,3.128-0.512,4.125
			c-0.122,0.095-0.251,0.18-0.387,0.255c-0.351,0.166-0.791,0.306-0.924,0.682c-0.053,0.277-0.021,0.563,0.089,0.822
			c0.142,0.517,0.189,1.054,0.14,1.588c0.001,0.184-0.067,0.361-0.191,0.497c-0.139,0.093-0.304,0.139-0.472,0.134
			c-2.136,0.096-3.188-0.638-4.463,1.199c-0.114,0.187-0.266,0.347-0.446,0.472c-0.183,0.09-0.383,0.14-0.587,0.147
			c-1.473,0.121-2.429-0.797-3.775-0.969c-1.862-0.236-2.257,0.727-3.896,1.492C112.32,193.605,111.071,192.859,110.586,191.099z"/>
		<path style="fill:#E0E0E0;" d="M84.807,163.956c-0.132-0.5-0.209-1.013-0.229-1.53c-0.191-3.188-3.188-2.665-5.783-3.092
			c-2.008-0.338,3.309-5.413-0.74-7.046c-0.789-0.219-1.479-0.7-1.957-1.365c-0.51-0.944,0-2.187,0.886-2.805
			c0.924-0.56,1.995-0.829,3.073-0.771c0.638-0.803,0.121-2.015-0.516-2.837c-0.638-0.822-1.422-1.753-1.18-2.761
			c0.363-1.53,2.499-1.581,4.042-1.275c0.567-0.918,0.555-2.072,0.835-3.124c0.281-1.052,1.109-2.149,2.187-2.015
			c1.077,0.134,1.632,1.275,2.627,1.498c1.154,0.274,2.155-0.746,3.061-1.511c0.905-0.765,2.493-1.275,3.118-0.236
			c0.37,0.638,0.147,1.447,0.536,2.04c0.638,1.033,2.27,0.389,3.258-0.338c0.988-0.727,2.55-1.396,3.264-0.383
			c0.176,0.334,0.306,0.69,0.389,1.058c0.465,1.352,1.913,2.028,3.067,2.895c1.154,0.867,2.04,2.595,1.077,3.654
			c-0.478,0.523-1.313,0.733-1.549,1.396c-0.293,0.835,0.555,1.581,1.231,2.149c1.116,0.956,1.32,3.826-0.159,4.578
			c-0.638,0.332-1.537,0.427-1.683,1.116c-0.147,0.689,0.485,1.09,0.899,1.562c0.995,1.287,0.759,3.137-0.528,4.132
			c-0.119,0.092-0.245,0.175-0.377,0.248c-0.351,0.166-0.791,0.306-0.918,0.676c-0.058,0.278-0.029,0.568,0.083,0.829
			c0.142,0.516,0.189,1.054,0.14,1.588c0.001,0.184-0.067,0.361-0.191,0.497c-0.14,0.093-0.305,0.14-0.472,0.134
			c-2.136,0.089-3.188-0.638-4.463,1.192c-0.114,0.189-0.266,0.351-0.446,0.478c-0.182,0.091-0.383,0.141-0.587,0.147
			c-1.473,0.121-2.429-0.797-3.775-0.969c-1.862-0.236-2.257,0.721-3.896,1.492C86.542,166.462,85.311,165.709,84.807,163.956z"/>
		<path style="fill:#E0E0E0;" d="M63.76,165.027c-0.132-0.498-0.209-1.009-0.229-1.524c-0.191-3.188-3.188-2.665-5.783-3.092
			c-2.008-0.338,3.309-5.413-0.74-7.046c-0.789-0.219-1.479-0.7-1.957-1.365c-0.51-0.944,0-2.187,0.886-2.812
			c0.926-0.554,1.995-0.822,3.073-0.771c0.638-0.803,0.121-2.008-0.517-2.831c-0.638-0.823-1.422-1.754-1.179-2.761
			c0.363-1.53,2.499-1.581,4.042-1.275c0.568-0.924,0.555-2.079,0.835-3.124c0.281-1.046,1.109-2.149,2.187-2.021
			c1.077,0.128,1.632,1.275,2.627,1.505c1.154,0.274,2.155-0.746,3.061-1.517c0.905-0.771,2.493-1.275,3.111-0.23
			c0.376,0.599,0.153,1.441,0.542,2.04c0.67,1.027,2.27,0.389,3.258-0.344c0.988-0.733,2.55-1.39,3.265-0.376
			c0.176,0.333,0.305,0.69,0.383,1.059c0.472,1.352,1.913,2.028,3.073,2.895c1.16,0.867,2.04,2.595,1.077,3.654
			c-0.478,0.516-1.313,0.733-1.549,1.396c-0.293,0.829,0.555,1.575,1.224,2.149c1.122,0.95,1.326,3.826-0.153,4.578
			c-0.638,0.331-1.537,0.427-1.683,1.116c-0.147,0.689,0.485,1.09,0.899,1.562c0.994,1.284,0.759,3.13-0.524,4.124
			c-0.12,0.093-0.248,0.177-0.381,0.25c-0.351,0.172-0.791,0.313-0.918,0.682c-0.058,0.278-0.029,0.568,0.083,0.829
			c0.142,0.516,0.189,1.054,0.14,1.588c0.001,0.184-0.067,0.361-0.191,0.497c-0.139,0.094-0.305,0.139-0.472,0.128
			c-2.136,0.096-3.188-0.638-4.463,1.199c-0.113,0.188-0.265,0.349-0.446,0.472c-0.18,0.097-0.382,0.147-0.587,0.147
			c-1.473,0.121-2.429-0.791-3.775-0.963c-1.862-0.236-2.257,0.721-3.896,1.492C65.494,167.539,64.27,166.787,63.76,165.027z"/>
		<path style="fill:#E0E0E0;" d="M50.976,173.628c-0.132-0.498-0.209-1.009-0.229-1.524c-0.191-3.188-3.188-2.665-5.783-3.092
			c-2.008-0.338,3.309-5.413-0.74-7.052c-0.79-0.212-1.482-0.692-1.957-1.358c-0.51-0.944,0-2.193,0.88-2.812
			c0.932-0.543,2.003-0.8,3.08-0.74c0.638-0.803,0.121-2.008-0.516-2.831c-0.638-0.822-1.422-1.753-1.18-2.761
			c0.363-1.53,2.499-1.588,4.042-1.275c0.568-0.924,0.555-2.079,0.835-3.124c0.281-1.046,1.109-2.149,2.187-2.021
			c1.078,0.128,1.632,1.275,2.627,1.505c1.154,0.274,2.155-0.746,3.061-1.517c0.905-0.772,2.493-1.275,3.111-0.236
			c0.376,0.606,0.153,1.447,0.542,2.047c0.638,1.027,2.27,0.389,3.258-0.344c0.988-0.733,2.55-1.39,3.265-0.376
			c0.176,0.333,0.305,0.689,0.382,1.058c0.472,1.352,1.913,2.028,3.073,2.895c1.16,0.867,2.04,2.589,1.078,3.647
			c-0.478,0.523-1.313,0.74-1.549,1.403c-0.293,0.829,0.555,1.575,1.224,2.149c1.122,0.95,1.326,3.826-0.153,4.578
			c-0.638,0.325-1.537,0.427-1.683,1.116c-0.147,0.689,0.485,1.09,0.893,1.562c0.996,1.277,0.769,3.12-0.508,4.117
			c-0.123,0.096-0.254,0.182-0.391,0.257c-0.351,0.172-0.791,0.312-0.924,0.682c-0.053,0.279-0.022,0.568,0.089,0.829
			c0.142,0.514,0.19,1.05,0.14,1.581c0.002,0.186-0.066,0.366-0.191,0.504c-0.14,0.091-0.305,0.136-0.472,0.128
			c-2.136,0.096-3.188-0.638-4.463,1.199c-0.113,0.188-0.265,0.349-0.446,0.472c-0.182,0.093-0.382,0.143-0.587,0.147
			c-1.473,0.121-2.429-0.791-3.775-0.963c-1.862-0.242-2.257,0.721-3.896,1.492C52.71,176.179,51.46,175.401,50.976,173.628z"/>
		<path style="fill:#EBEBEB;" d="M54.853,184.531c0,0,5.343,7.556,7.186,9.953c1.843,2.397,11.063,17.33,12.319,27.207
			c0.134,1.058,0.268,1.964,0.395,2.755c-3.966,26.174-3.341,74.058-3.188,82.252h12.561c0.115-9.245,1.18-93.729,1.575-96.324
			c0.414-2.735,5.668-13.128,13.779-17.4c8.11-4.272,15.124-18.408,15.124-18.408h-2.589c0,0-4.788,8.665-11.611,13.46
			c-0.984,0.674-2.01,1.283-3.073,1.824c0.249-7.811-2.71-15.303-2.71-15.303l-1.396,1.275c1.913,7.715,1.639,12.657,1.065,15.5
			c-2.576,1.207-4.953,2.798-7.052,4.718c-7.077-9.201-11.056-30.242-11.056-30.242l-1.811,0.988
			c0.515,4.346,1.296,8.656,2.34,12.905c1.326,5.445,5.228,15.698,7.014,20.359c-2.168,3.122-3.961,6.489-5.343,10.03
			c-0.19-0.301-0.42-0.575-0.682-0.816c-4.61-4.17-13.275-23.859-13.275-23.859c-2.091-4.578,1.11-16.578,1.11-16.578H63.11
			l-1.071,10.54l-6.057-6.638l-1.129,0.899l6.453,8.289l3.316,10.514l-8.64-9.558L54.853,184.531z"/>
	</g>
	<g id="freepik--farm-house--inject-5">
		<path style="fill:#E0E0E0;" d="M330.996,120.091c0,0-1.152,3.473-0.232,3.194c0.601-0.27,1.05-0.795,1.222-1.431
			c0,0,0.224,2.444,0.882,2.367c0.408-0.065,0.764-0.313,0.967-0.673c0,0,1.702,10.426,8.508,10.62v1.415h-7.735l0.472-0.773
			l-1.423,0.882l-0.449,0.271l0.449,0.271l1.423,0.882l-0.472-0.773h7.735v4.285c-0.527,0.062-0.943,0.477-1.004,1.004
			c-0.073,0.628,0.376,1.197,1.004,1.27v0.286h1.122v-0.286c0.527-0.062,0.943-0.477,1.004-1.004
			c0.073-0.628-0.376-1.197-1.004-1.27v-4.285h7.448c0.087,0.181,0.233,0.327,0.414,0.414c0.442,0.214,0.974,0.028,1.188-0.414
			c0.214-0.442,0.028-0.974-0.414-1.188c-0.442-0.214-0.974-0.028-1.188,0.414h-7.479v-1.462c5.956-0.704,6.451-8.284,6.451-8.284
			s4.2,0.688,4.811,3.829c0.058-2.19-1.209-4.198-3.21-5.089c0,0,3.558-0.65,5.793,6.389c0,0,2.32-6.691-2.452-9.127
			c0,0,3.867-0.41,6.188,4.687c0,0-2.336-9.537-9.738-8.817c-5.252,0.51-5.546,5.762-5.546,5.762s-3.426,0.913-5.414,0.456
			c-1.988-0.456-3.14-3.442-3.751-4.587c0,0,1.307-1.091,0.92-1.547c-0.387-0.456-1.454,0.534-1.454,0.534s0.843-2.444,0-2.521
			c-0.843-0.077-1.067,1.222-1.067,1.222s-0.433-2.065-1.137-2.065s-0.665,1.609-0.665,1.609c-0.252-0.309-0.697-0.376-1.029-0.155
			c-0.611,0.379,0,1.222,0,1.222s-0.379,0.193-0.603,1.091l-1.841,0.657L330.996,120.091z M351.825,135.94
			c0,0.124-0.232,0.124-0.232,0c0-0.064,0.052-0.116,0.116-0.116C351.773,135.824,351.825,135.876,351.825,135.94L351.825,135.94z"
			/>
		<polygon style="fill:#E0E0E0;" points="263.001,228.384 266.18,229.614 300.305,229.614 324.553,166.793 333.154,161.58 
			333.154,141.47 325.636,141.47 287.666,164.48 		"/>
		<g style="opacity:0.6;">
			<polygon style="fill:#FFFFFF;" points="263.001,228.384 266.18,229.614 290.428,166.793 326.587,144.881 333.154,144.881 
				333.154,141.47 325.636,141.47 287.666,164.48 			"/>
		</g>
		<polygon style="fill:#EBEBEB;" points="304.172,220.131 304.172,306.698 365.593,306.698 388.735,306.698 450.156,306.698 
			450.156,220.131 429.11,165.633 392.053,143.172 388.735,143.172 365.593,143.172 362.283,143.172 325.218,165.633 		"/>
		<polygon style="fill:#F5F5F5;" points="281.107,196.819 281.719,195.241 289.623,174.775 290.234,173.19 293.15,165.641 
			298.139,162.617 298.75,162.245 306.647,157.458 307.266,157.086 315.163,152.298 315.774,151.927 323.679,147.139 
			324.29,146.768 330.207,143.179 359.978,143.179 366.243,146.977 366.861,147.348 374.759,152.136 375.37,152.507 
			383.274,157.295 383.885,157.666 391.79,162.462 392.401,162.825 397.042,165.641 400.298,174.072 400.909,175.657 
			408.814,196.123 409.425,197.701 418.088,220.131 418.088,306.698 272.104,306.698 272.104,220.131 		"/>
		<rect x="444.417" y="224.935" style="opacity:0.2;fill:#E0E0E0;enable-background:new    ;" width="0.611" height="81.763"/>
		<rect x="440.078" y="224.935" style="opacity:0.2;fill:#E0E0E0;enable-background:new    ;" width="0.611" height="81.763"/>
		<rect x="435.746" y="224.935" style="opacity:0.2;fill:#E0E0E0;enable-background:new    ;" width="0.611" height="81.763"/>
		<rect x="431.407" y="224.935" style="opacity:0.2;fill:#E0E0E0;enable-background:new    ;" width="0.611" height="81.763"/>
		<rect x="427.076" y="224.935" style="opacity:0.2;fill:#E0E0E0;enable-background:new    ;" width="0.611" height="81.763"/>
		<rect x="422.744" y="224.935" style="opacity:0.2;fill:#E0E0E0;enable-background:new    ;" width="0.611" height="81.763"/>
		<polygon style="opacity:0.2;fill:#E0E0E0;enable-background:new    ;" points="409.425,197.701 409.425,306.698 408.814,306.698 
			408.814,196.123 		"/>
		<polygon style="opacity:0.2;fill:#E0E0E0;enable-background:new    ;" points="400.909,175.657 400.909,306.698 400.298,306.698 
			400.298,174.072 		"/>
		<polygon style="opacity:0.2;fill:#E0E0E0;enable-background:new    ;" points="392.401,162.825 392.401,306.698 391.79,306.698 
			391.79,162.462 		"/>
		<polygon style="opacity:0.2;fill:#E0E0E0;enable-background:new    ;" points="383.885,157.666 383.885,306.698 383.274,306.698 
			383.274,157.295 		"/>
		<polygon style="opacity:0.2;fill:#E0E0E0;enable-background:new    ;" points="375.37,152.507 375.37,306.698 374.759,306.698 
			374.759,152.136 		"/>
		<polygon style="opacity:0.2;fill:#E0E0E0;enable-background:new    ;" points="366.861,147.348 366.861,306.698 366.243,306.698 
			366.243,146.977 		"/>
		<rect x="357.735" y="142.916" style="opacity:0.2;fill:#E0E0E0;enable-background:new    ;" width="0.611" height="163.781"/>
		<rect x="340.703" y="142.916" style="opacity:0.2;fill:#E0E0E0;enable-background:new    ;" width="0.611" height="163.781"/>
		<rect x="323.679" y="142.916" style="opacity:0.2;fill:#E0E0E0;enable-background:new    ;" width="0.611" height="163.781"/>
		<polygon style="opacity:0.2;fill:#E0E0E0;enable-background:new    ;" points="307.266,157.086 307.266,306.698 306.647,306.698 
			306.647,157.458 		"/>
		<polygon style="opacity:0.2;fill:#E0E0E0;enable-background:new    ;" points="281.719,195.241 281.719,306.698 281.107,306.698 
			281.107,196.819 		"/>
		<rect x="349.219" y="142.916" style="opacity:0.2;fill:#E0E0E0;enable-background:new    ;" width="0.611" height="163.781"/>
		<rect x="332.187" y="142.916" style="opacity:0.2;fill:#E0E0E0;enable-background:new    ;" width="0.611" height="163.781"/>
		<rect x="315.163" y="150.651" style="opacity:0.2;fill:#E0E0E0;enable-background:new    ;" width="0.611" height="156.047"/>
		<polygon style="opacity:0.2;fill:#E0E0E0;enable-background:new    ;" points="298.75,162.245 298.75,306.698 298.139,306.698 
			298.139,162.617 		"/>
		<polygon style="opacity:0.2;fill:#E0E0E0;enable-background:new    ;" points="290.234,173.19 290.234,306.698 289.623,306.698 
			289.623,174.775 		"/>
		<polygon style="fill:#E0E0E0;" points="272.398,219.195 274.432,213.905 274.432,306.698 270.627,306.698 270.627,223.767 		"/>
		<polygon style="opacity:0.6;fill:#FFFFFF;enable-background:new    ;" points="272.398,219.195 274.432,213.905 274.432,306.698 
			270.627,306.698 270.627,223.767 		"/>
		<polygon style="opacity:0.4;fill:#FFFFFF;enable-background:new    ;" points="272.398,219.195 272.398,306.698 270.627,306.698 
			270.627,223.767 		"/>
		<rect x="323.331" y="246.027" style="fill:#E0E0E0;" width="37.498" height="60.671"/>
		<rect x="323.331" y="276.362" style="opacity:0.6;fill:#FFFFFF;enable-background:new    ;" width="37.498" height="30.335"/>
		<rect x="359.065" y="244.557" style="fill:#E0E0E0;" width="3.805" height="62.14"/>
		<rect x="359.065" y="244.557" style="opacity:0.6;fill:#FFFFFF;enable-background:new    ;" width="3.805" height="62.14"/>
		<rect x="359.065" y="244.557" style="opacity:0.4;fill:#FFFFFF;enable-background:new    ;" width="1.763" height="62.14"/>
		<rect x="320.361" y="244.557" style="fill:#E0E0E0;" width="3.805" height="62.14"/>
		<rect x="320.361" y="244.557" style="opacity:0.6;fill:#FFFFFF;enable-background:new    ;" width="3.805" height="62.14"/>
		<rect x="320.368" y="244.557" style="opacity:0.4;fill:#FFFFFF;enable-background:new    ;" width="1.764" height="62.14"/>
		<rect x="320.368" y="244.557" style="fill:#E0E0E0;" width="40.46" height="2.444"/>
		<rect x="320.368" y="244.557" style="opacity:0.6;fill:#FFFFFF;enable-background:new    ;" width="40.46" height="2.444"/>
		<rect x="320.368" y="244.557" style="opacity:0.4;fill:#FFFFFF;enable-background:new    ;" width="40.46" height="2.444"/>
		<path style="opacity:0.4;fill:#FFFFFF;enable-background:new    ;" d="M323.354,276.362v30.335h17.859v-30.335H323.354z
			 M324.901,277.909h14.766v27.241h-14.766V277.909z"/>
		<polygon style="opacity:0.4;fill:#FFFFFF;enable-background:new    ;" points="325.257,278.296 325.373,278.296 332.264,290.006 
			339.171,278.296 339.272,278.296 339.272,281.165 333.169,291.53 339.272,301.894 339.272,304.764 339.171,304.764 
			332.264,293.054 325.373,304.764 325.257,304.764 325.257,301.894 331.375,291.53 325.257,281.165 		"/>
		<path style="opacity:0.4;fill:#FFFFFF;enable-background:new    ;" d="M341.6,276.362v30.335h17.101v-30.335H341.6z
			 M343.147,277.909h14.789v27.241h-14.789V277.909z"/>
		<polygon style="opacity:0.4;fill:#FFFFFF;enable-background:new    ;" points="343.526,278.296 343.634,278.296 350.534,290.006 
			357.441,278.296 357.541,278.296 357.541,281.165 351.431,291.53 357.541,301.894 357.541,304.764 357.441,304.764 
			350.534,293.054 343.634,304.764 343.526,304.764 343.526,301.894 349.636,291.53 343.526,281.165 		"/>
		<rect x="333.394" y="180.244" style="fill:#E0E0E0;" width="17.372" height="25.841"/>
		<rect x="349.002" y="178.774" style="fill:#E0E0E0;" width="3.805" height="27.311"/>
		<rect x="349.002" y="178.774" style="opacity:0.6;fill:#FFFFFF;enable-background:new    ;" width="3.805" height="27.311"/>
		<rect x="349.002" y="178.774" style="opacity:0.4;fill:#FFFFFF;enable-background:new    ;" width="1.763" height="27.311"/>
		<rect x="330.423" y="178.774" style="fill:#E0E0E0;" width="3.806" height="27.311"/>
		<rect x="330.423" y="178.774" style="opacity:0.6;fill:#FFFFFF;enable-background:new    ;" width="3.806" height="27.311"/>
		<rect x="330.424" y="178.774" style="opacity:0.4;fill:#FFFFFF;enable-background:new    ;" width="1.763" height="27.311"/>
		<rect x="330.424" y="178.774" style="fill:#E0E0E0;" width="20.342" height="2.444"/>
		<rect x="330.424" y="178.774" style="opacity:0.6;fill:#FFFFFF;enable-background:new    ;" width="20.342" height="2.444"/>
		<rect x="330.424" y="178.774" style="opacity:0.4;fill:#FFFFFF;enable-background:new    ;" width="20.342" height="2.444"/>
		<rect x="330.424" y="203.633" style="fill:#E0E0E0;" width="20.342" height="2.444"/>
		<rect x="330.424" y="203.633" style="opacity:0.6;fill:#FFFFFF;enable-background:new    ;" width="20.342" height="2.444"/>
		<rect x="330.424" y="203.633" style="opacity:0.4;fill:#FFFFFF;enable-background:new    ;" width="20.342" height="2.444"/>
		<rect x="287.341" y="246.027" style="fill:#E0E0E0;" width="17.372" height="25.841"/>
		<rect x="302.95" y="244.557" style="fill:#E0E0E0;" width="3.805" height="27.311"/>
		<rect x="302.95" y="244.557" style="opacity:0.6;fill:#FFFFFF;enable-background:new    ;" width="3.805" height="27.311"/>
		<rect x="302.95" y="244.557" style="opacity:0.4;fill:#FFFFFF;enable-background:new    ;" width="1.763" height="27.311"/>
		<rect x="284.379" y="244.557" style="fill:#E0E0E0;" width="3.805" height="27.311"/>
		<rect x="284.379" y="244.557" style="opacity:0.6;fill:#FFFFFF;enable-background:new    ;" width="3.805" height="27.311"/>
		<rect x="284.379" y="244.557" style="opacity:0.4;fill:#FFFFFF;enable-background:new    ;" width="1.763" height="27.311"/>
		<rect x="284.371" y="244.557" style="fill:#E0E0E0;" width="20.342" height="2.444"/>
		<rect x="284.371" y="244.557" style="opacity:0.6;fill:#FFFFFF;enable-background:new    ;" width="20.342" height="2.444"/>
		<rect x="284.371" y="244.557" style="opacity:0.4;fill:#FFFFFF;enable-background:new    ;" width="20.342" height="2.444"/>
		<rect x="284.371" y="269.417" style="fill:#E0E0E0;" width="20.342" height="2.444"/>
		<rect x="284.371" y="269.417" style="opacity:0.6;fill:#FFFFFF;enable-background:new    ;" width="20.342" height="2.444"/>
		<rect x="284.371" y="269.417" style="opacity:0.4;fill:#FFFFFF;enable-background:new    ;" width="20.342" height="2.444"/>
		<rect x="380.993" y="246.027" style="fill:#E0E0E0;" width="17.372" height="25.841"/>
		<rect x="396.601" y="244.557" style="fill:#E0E0E0;" width="3.805" height="27.311"/>
		<rect x="396.601" y="244.557" style="opacity:0.6;fill:#FFFFFF;enable-background:new    ;" width="3.805" height="27.311"/>
		<rect x="396.601" y="244.557" style="opacity:0.4;fill:#FFFFFF;enable-background:new    ;" width="1.763" height="27.311"/>
		<rect x="378.023" y="244.557" style="fill:#E0E0E0;" width="3.805" height="27.311"/>
		<rect x="378.023" y="244.557" style="opacity:0.6;fill:#FFFFFF;enable-background:new    ;" width="3.805" height="27.311"/>
		<rect x="378.023" y="244.557" style="opacity:0.4;fill:#FFFFFF;enable-background:new    ;" width="1.763" height="27.311"/>
		<rect x="378.023" y="244.557" style="fill:#E0E0E0;" width="20.342" height="2.444"/>
		<rect x="378.023" y="244.557" style="opacity:0.6;fill:#FFFFFF;enable-background:new    ;" width="20.342" height="2.444"/>
		<rect x="378.023" y="244.557" style="opacity:0.4;fill:#FFFFFF;enable-background:new    ;" width="20.342" height="2.444"/>
		<rect x="378.023" y="269.417" style="fill:#E0E0E0;" width="20.342" height="2.444"/>
		<rect x="378.023" y="269.417" style="opacity:0.6;fill:#FFFFFF;enable-background:new    ;" width="20.342" height="2.444"/>
		<rect x="378.023" y="269.417" style="opacity:0.4;fill:#FFFFFF;enable-background:new    ;" width="20.342" height="2.444"/>
		<polygon style="fill:#E6E6E6;" points="287.666,164.48 325.636,141.47 394.575,141.47 432.544,164.48 457.21,228.384 
			454.023,229.614 415.814,229.614 391.558,166.793 358.059,146.49 355.406,144.881 326.587,144.881 290.428,166.793 
			266.18,229.614 263.001,228.384 		"/>
		<polygon style="opacity:0.5;fill:#F5F5F5;enable-background:new    ;" points="457.21,228.384 418.993,228.384 394.327,164.48 
			432.544,164.48 		"/>
		<polygon style="opacity:0.8;fill:#FFFFFF;enable-background:new    ;" points="432.544,164.48 394.575,141.47 356.358,141.47 
			394.327,164.48 		"/>
	</g>
	<g>
		<g>
			<path style="fill:#F5F5F5;" d="M341.016,77.713c-1.964-1.484-4.829-1.652-6.953-0.408c-2.819-5.696-10.674-8.21-16.276-5.209
				c-1.462-6.138-7.509-10.856-13.819-10.78c-6.309,0.076-12.242,4.938-13.555,11.11c-0.209,0.981-0.347,2.055-1.048,2.772
				c-1.139,1.164-3.042,0.773-4.666,0.647c-5.109-0.399-10.251,3.189-11.641,8.122l70.366-0.256
				C344.04,81.327,342.979,79.197,341.016,77.713z"/>
		</g>
	</g>
	<g>
		<g>
			<path style="fill:#EBEBEB;" d="M174.811,58.647c-1.964-1.484-4.829-1.652-6.952-0.408c-2.819-5.696-10.674-8.21-16.276-5.209
				c-1.462-6.138-7.509-10.856-13.819-10.78c-6.309,0.076-12.242,4.938-13.555,11.11c-0.209,0.981-0.347,2.055-1.048,2.772
				c-1.14,1.164-3.042,0.773-4.666,0.647c-5.11-0.399-10.251,3.189-11.641,8.122l70.366-0.256
				C177.836,62.261,176.775,60.131,174.811,58.647z"/>
		</g>
	</g>
	<g>
		<g>
			<path style="fill:#EBEBEB;" d="M87.296,102.38c-1.448-1.094-3.561-1.218-5.127-0.301c-2.079-4.2-7.871-6.054-12.002-3.841
				c-1.078-4.526-5.537-8.005-10.19-7.949c-4.652,0.056-9.027,3.641-9.995,8.192c-0.154,0.723-0.256,1.515-0.773,2.044
				c-0.84,0.858-2.243,0.57-3.441,0.477c-3.768-0.294-7.559,2.351-8.584,5.989l51.887-0.189
				C89.526,105.045,88.744,103.474,87.296,102.38z"/>
		</g>
	</g>
	<g>
		<g>
			<path style="fill:#EBEBEB;" d="M455.51,121.947c-1.448-1.094-3.561-1.218-5.127-0.301c-2.078-4.2-7.871-6.054-12.002-3.841
				c-1.078-4.526-5.537-8.005-10.19-7.949c-4.652,0.056-9.027,3.641-9.995,8.192c-0.154,0.723-0.256,1.516-0.773,2.044
				c-0.84,0.858-2.243,0.57-3.441,0.477c-3.768-0.294-7.559,2.351-8.584,5.989l51.887-0.189
				C457.741,124.612,456.958,123.041,455.51,121.947z"/>
		</g>
	</g>
</g>
<g id="Background_simple" style="display:none;">
	<g style="display:inline;">
		<path style="fill:#407BFF;" d="M174.725,95.247c-26.141,2.202-51.349,6.891-73.706,14.245
			c-26.35,8.668-53.273,22.172-45.321,39.834c14.681,32.608,85.107,33.202,71.046,55.127c-15.928,24.835-5.246,53.966,66.225,62.067
			c135.749,15.387,299.85-74.643,253.76-124.114C418.036,111.608,313.528,83.554,174.725,95.247z"/>
		<path style="opacity:0.9;fill:#FFFFFF;" d="M174.725,95.247c-26.141,2.202-51.349,6.891-73.706,14.245
			c-26.35,8.668-53.273,22.172-45.321,39.834c14.681,32.608,85.107,33.202,71.046,55.127c-15.928,24.835-5.246,53.966,66.225,62.067
			c135.749,15.387,299.85-74.643,253.76-124.114C418.036,111.608,313.528,83.554,174.725,95.247z"/>
	</g>
</g>
<g id="Shadow">
	<g>
		<g>
			<path style="fill:#F5F5F5;" d="M458.875,448.394c0,3.387-93.517,6.132-208.875,6.132s-208.875-2.745-208.875-6.132
				c0-3.387,93.516-6.132,208.875-6.132S458.875,445.007,458.875,448.394z"/>
		</g>
	</g>
</g>
<g id="Plants">
	<g>
		<g>
			<path style="fill:#407BFF;" d="M54.167,427.806c-0.579-0.972-1.868-2.167-2.771-2.848c-0.903-0.681-2.143-1.02-3.189-0.591
				c-1.336,0.547-1.953,2.187-1.766,3.618c0.187,1.432,0.869,3.242,1.684,4.435c3.476,5.089,6.693,9.747,12.058,13.534
				C60.181,439.632,57.375,433.197,54.167,427.806z"/>
		</g>
		<g>
			<path style="fill:#407BFF;" d="M71.864,428.682c-1.2-0.657-3.432,0.275-4.528,1.095c-2.172,1.627-3.494,3.331-4.818,5.7
				c-1.681,3.008-1.875,7.231-2.089,9.913c4.248-3.449,8.575-6.985,11.484-11.619c0.508-0.809,0.979-1.678,1.07-2.628
				C73.075,430.193,72.701,429.141,71.864,428.682z"/>
		</g>
		<path style="fill:none;stroke:#263238;stroke-width:0.5;stroke-linecap:round;stroke-linejoin:round;stroke-miterlimit:10;" d="
			M55.487,435.211c2.511,4.047,4.322,8.528,5.33,13.183"/>
		<path style="fill:none;stroke:#263238;stroke-width:0.5;stroke-linecap:round;stroke-linejoin:round;stroke-miterlimit:10;" d="
			M65.157,437.269c-2.111,2.531-3.777,5.431-4.901,8.53"/>
	</g>
	<g>
		<g>
			<path style="fill:#407BFF;" d="M450.536,395.022c-0.579-0.972-1.868-2.167-2.771-2.848c-0.903-0.681-2.142-1.02-3.189-0.591
				c-1.336,0.547-1.953,2.186-1.766,3.618c0.187,1.432,0.87,3.242,1.684,4.434c3.476,5.089,6.693,9.747,12.058,13.534
				C456.551,406.848,453.745,400.413,450.536,395.022z"/>
		</g>
		<g>
			<path style="fill:#407BFF;" d="M468.233,395.898c-1.2-0.657-3.432,0.275-4.527,1.095c-2.172,1.627-3.494,3.331-4.818,5.7
				c-1.68,3.008-1.875,7.231-2.089,9.913c4.248-3.449,8.575-6.985,11.484-11.619c0.508-0.809,0.979-1.678,1.07-2.628
				C469.445,397.408,469.071,396.357,468.233,395.898z"/>
		</g>
		<path style="fill:none;stroke:#263238;stroke-width:0.5;stroke-linecap:round;stroke-linejoin:round;stroke-miterlimit:10;" d="
			M451.856,402.426c2.511,4.047,4.322,8.528,5.33,13.183"/>
		<path style="fill:none;stroke:#263238;stroke-width:0.5;stroke-linecap:round;stroke-linejoin:round;stroke-miterlimit:10;" d="
			M461.527,404.485c-2.111,2.531-3.777,5.431-4.901,8.53"/>
	</g>
</g>
<g id="Sun">
	<g id="freepik--Sun--inject-5_00000044893866095651445610000002372606883591987871_">
		<g>
			<g>
				<path style="fill:#407BFF;" d="M422.957,77.662c0,2.368-3.425,4.25-4.01,6.43c-0.585,2.181,1.401,5.599,0.262,7.57
					c-1.139,1.971-5.066,1.934-6.693,3.553c-1.626,1.619-1.551,5.539-3.553,6.693c-2.001,1.154-5.314-0.862-7.57-0.262
					c-2.256,0.6-4.07,4.01-6.43,4.01c-2.361,0-4.25-3.425-6.431-4.01c-2.181-0.585-5.591,1.409-7.57,0.262
					c-1.979-1.147-1.926-5.066-3.552-6.693c-1.626-1.627-5.531-1.544-6.693-3.553c-1.162-2.008,0.862-5.336,0.262-7.585
					c-0.599-2.248-4.01-4.062-4.01-6.43s3.425-4.242,4.01-6.423s-1.401-5.599-0.262-7.57c1.139-1.971,5.066-1.934,6.693-3.56
					c1.626-1.626,1.551-5.531,3.552-6.693c2.001-1.162,5.314,0.869,7.57,0.262c2.256-0.607,4.07-4.002,6.431-4.002
					c2.361,0,4.25,3.425,6.431,4.002c2.181,0.577,5.591-1.402,7.57-0.262c1.979,1.139,1.926,5.067,3.553,6.693
					c1.626,1.626,5.531,1.551,6.693,3.56c1.162,2.009-0.862,5.314-0.262,7.57C419.547,73.48,422.957,75.301,422.957,77.662z"/>
			</g>
			<g style="opacity:0.7;enable-background:new    ;">
				<path style="fill:#FFFFFF;" d="M422.957,77.662c0,2.368-3.425,4.25-4.01,6.43c-0.585,2.181,1.401,5.599,0.262,7.57
					c-1.139,1.971-5.066,1.934-6.693,3.553c-1.626,1.619-1.551,5.539-3.553,6.693c-2.001,1.154-5.314-0.862-7.57-0.262
					c-2.256,0.6-4.07,4.01-6.43,4.01c-2.361,0-4.25-3.425-6.431-4.01c-2.181-0.585-5.591,1.409-7.57,0.262
					c-1.979-1.147-1.926-5.066-3.552-6.693c-1.626-1.627-5.531-1.544-6.693-3.553c-1.162-2.008,0.862-5.336,0.262-7.585
					c-0.599-2.248-4.01-4.062-4.01-6.43s3.425-4.242,4.01-6.423s-1.401-5.599-0.262-7.57c1.139-1.971,5.066-1.934,6.693-3.56
					c1.626-1.626,1.551-5.531,3.552-6.693c2.001-1.162,5.314,0.869,7.57,0.262c2.256-0.607,4.07-4.002,6.431-4.002
					c2.361,0,4.25,3.425,6.431,4.002c2.181,0.577,5.591-1.402,7.57-0.262c1.979,1.139,1.926,5.067,3.553,6.693
					c1.626,1.626,5.531,1.551,6.693,3.56c1.162,2.009-0.862,5.314-0.262,7.57C419.547,73.48,422.957,75.301,422.957,77.662z"/>
			</g>
		</g>
		
			<ellipse transform="matrix(0.828 -0.5607 0.5607 0.828 24.3859 234.819)" style="fill:#407BFF;" cx="394.963" cy="77.659" rx="20.004" ry="20.004"/>
		
			<ellipse transform="matrix(0.828 -0.5607 0.5607 0.828 24.3859 234.819)" style="opacity:0.5;fill:#FFFFFF;enable-background:new    ;" cx="394.963" cy="77.659" rx="20.004" ry="20.004"/>
	</g>
</g>
<g id="Fence">
	<g>
		<g>
			<rect x="376.423" y="309.939" style="fill:#407BFF;" width="103.488" height="12.779"/>
			<rect x="376.423" y="309.939" style="opacity:0.3;fill:#FFFFFF;" width="103.488" height="12.779"/>
			<g>
				<polygon style="fill:#407BFF;" points="451.203,367.384 435.967,367.384 435.967,289.362 443.585,280.79 451.203,289.362 				
					"/>
				<polygon style="opacity:0.6;fill:#FFFFFF;" points="451.203,367.384 435.967,367.384 435.967,289.362 443.585,280.79 
					451.203,289.362 				"/>
			</g>
			<g>
				<polygon style="fill:#407BFF;" points="479.912,367.384 464.675,367.384 464.675,289.362 472.293,280.79 479.912,289.362 				
					"/>
				<polygon style="opacity:0.6;fill:#FFFFFF;" points="479.912,367.384 464.675,367.384 464.675,289.362 472.293,280.79 
					479.912,289.362 				"/>
			</g>
			<g>
				<polygon style="fill:#407BFF;" points="422.494,367.384 407.258,367.384 407.258,289.362 414.876,280.79 422.494,289.362 				
					"/>
				<polygon style="opacity:0.6;fill:#FFFFFF;" points="422.494,367.384 407.258,367.384 407.258,289.362 414.876,280.79 
					422.494,289.362 				"/>
			</g>
			<path style="fill:#263238;" d="M416.426,316.329c0,0.856-0.694,1.549-1.549,1.549c-0.856,0-1.549-0.694-1.549-1.549
				c0-0.856,0.694-1.549,1.549-1.549C415.732,314.78,416.426,315.473,416.426,316.329z"/>
			<g>
				<polygon style="fill:#407BFF;" points="393.345,367.384 378.108,367.384 378.108,289.362 385.727,280.79 393.345,289.362 				
					"/>
				<polygon style="opacity:0.6;fill:#FFFFFF;" points="393.345,367.384 378.108,367.384 378.108,289.362 385.727,280.79 
					393.345,289.362 				"/>
			</g>
			<circle style="fill:#263238;" cx="385.727" cy="316.329" r="1.549"/>
			<path style="fill:#263238;" d="M445.676,316.329c0,0.856-0.694,1.549-1.549,1.549c-0.856,0-1.549-0.694-1.549-1.549
				c0-0.856,0.694-1.549,1.549-1.549C444.983,314.78,445.676,315.473,445.676,316.329z"/>
			<circle style="fill:#263238;" cx="472.293" cy="316.329" r="1.549"/>
		</g>
		<g>
			<rect x="31.197" y="309.939" style="fill:#407BFF;" width="103.488" height="12.779"/>
			<rect x="31.197" y="309.939" style="opacity:0.3;fill:#FFFFFF;" width="103.488" height="12.779"/>
			<g>
				<polygon style="fill:#407BFF;" points="105.977,367.384 90.74,367.384 90.74,289.362 98.359,280.79 105.977,289.362 				"/>
				<polygon style="opacity:0.6;fill:#FFFFFF;" points="105.977,367.384 90.74,367.384 90.74,289.362 98.359,280.79 
					105.977,289.362 				"/>
			</g>
			<g>
				<polygon style="fill:#407BFF;" points="134.685,367.384 119.449,367.384 119.449,289.362 127.067,280.79 134.685,289.362 				
					"/>
				<polygon style="opacity:0.6;fill:#FFFFFF;" points="134.685,367.384 119.449,367.384 119.449,289.362 127.067,280.79 
					134.685,289.362 				"/>
			</g>
			<g>
				<polygon style="fill:#407BFF;" points="77.268,367.384 62.032,367.384 62.032,289.362 69.65,280.79 77.268,289.362 				"/>
				<polygon style="opacity:0.6;fill:#FFFFFF;" points="77.268,367.384 62.032,367.384 62.032,289.362 69.65,280.79 77.268,289.362 
									"/>
			</g>
			<circle style="fill:#263238;" cx="69.65" cy="316.329" r="1.549"/>
			<g>
				<polygon style="fill:#407BFF;" points="48.118,367.384 32.882,367.384 32.882,289.362 40.5,280.79 48.118,289.362 				"/>
				<polygon style="opacity:0.6;fill:#FFFFFF;" points="48.118,367.384 32.882,367.384 32.882,289.362 40.5,280.79 48.118,289.362 
									"/>
			</g>
			<path style="fill:#263238;" d="M42.049,316.329c0,0.856-0.694,1.549-1.549,1.549c-0.856,0-1.549-0.694-1.549-1.549
				c0-0.856,0.694-1.549,1.549-1.549C41.356,314.78,42.049,315.473,42.049,316.329z"/>
			<circle style="fill:#263238;" cx="98.901" cy="316.329" r="1.549"/>
			<path style="fill:#263238;" d="M128.616,316.329c0,0.856-0.694,1.549-1.549,1.549c-0.856,0-1.549-0.694-1.549-1.549
				c0-0.856,0.694-1.549,1.549-1.549C127.923,314.78,128.616,315.473,128.616,316.329z"/>
		</g>
	</g>
</g>
<g id="Farm_Tractor">
	<g>
		<polyline style="fill:none;stroke:#263238;stroke-miterlimit:10;" points="264.134,216.956 281.246,216.956 281.246,236.45 		"/>
		<path style="fill:#263238;" d="M278.229,253.199h-1.5V220.24h1.5c4.161,0,7.534,3.373,7.534,7.534v17.891
			C285.763,249.826,282.39,253.199,278.229,253.199z"/>
		<rect x="387.349" y="310.319" style="fill:#263238;" width="7.615" height="33.66"/>
		<path style="fill:#407BFF;" d="M192.886,392.787c2.468,0.291,189.68-0.409,189.68-0.409l6.793-31.094l-87.131-28.261
			l-5.492-48.625H263.17l-5.58,38.744l-58.068-23.381l-73.485-6.216l-6.458,45.083L192.886,392.787z"/>
		<path style="opacity:0.5;" d="M192.886,392.787c2.468,0.291,189.68-0.409,189.68-0.409l6.793-31.094l-87.131-28.261l-5.492-48.625
			H263.17l-5.58,38.744l-58.068-23.381l-73.485-6.216l-6.458,45.083L192.886,392.787z"/>
		<polygon style="fill:#407BFF;" points="127.075,209.823 118.563,300.98 173.183,302.727 207.232,317.745 233.833,348.131 
			272.493,348.131 270.832,328.526 263.604,203.187 		"/>
		<polygon style="opacity:0.5;fill:#FFFFFF;" points="127.164,209.823 118.652,300.98 173.272,302.727 207.321,317.745 
			233.922,348.131 272.582,348.131 270.921,328.526 268.602,290.097 263.693,203.187 		"/>
		<path style="fill:#263238;" d="M194.158,290.658c0,0-21.166-41.931-24.368-41.931c-3.202,0-5.158,1.329-8.182,2.666
			c-3.024,1.337,1.067,39.261,1.067,39.261L194.158,290.658z"/>
		<path style="opacity:0.3;fill:#FFFFFF;" d="M136.286,290.105l79.104-77.894c0,0,35.472,0,34.054,0s-76.416,77.886-76.416,77.886
			L136.286,290.105z"/>
		<path style="fill:#407BFF;" d="M387.8,302.236c-4.478-7.334-112.475-19.559-113.529-19.908l3.831,79.969l24.881,1.06
			c0,0,82.183,3.143,82.974,2.794C386.747,365.801,392.278,309.57,387.8,302.236z"/>
		<path style="fill:#407BFF;" d="M266.057,212.211H123.645c-1.568,0-2.839-1.271-2.839-2.839l0,0c0-1.568,1.271-2.839,2.839-2.839
			h142.412c1.568,0,2.839,1.271,2.839,2.839l0,0C268.896,210.94,267.625,212.211,266.057,212.211z"/>
		<path style="fill:#407BFF;" d="M265.62,207.767H124.845v-5.696c0-2.357,1.911-4.268,4.268-4.268h132.239
			c2.357,0,4.268,1.911,4.268,4.268V207.767z"/>
		<path style="fill:#263238;" d="M291.39,296.702v-86.585c0,0,0.762-9.698,13.726-9.698v7.088c0,0-6.863-1.795-6.863,4.884
			c0,6.68,0,84.644,0,84.644L291.39,296.702z"/>
		<g>
			<g>
				<ellipse style="fill:#263238;" cx="156.046" cy="381.709" rx="67.381" ry="65.926"/>
				
					<ellipse style="fill:none;stroke:#263238;stroke-width:6;stroke-miterlimit:10;stroke-dasharray:12.3173,12.3173;" cx="156.046" cy="381.709" rx="67.381" ry="65.926"/>
			</g>
			<ellipse style="opacity:0.3;fill:#FFFFFF;" cx="156.046" cy="381.709" rx="32.521" ry="31.819"/>
			<ellipse style="opacity:0.3;fill:#FFFFFF;" cx="156.046" cy="381.709" rx="21.908" ry="21.435"/>
		</g>
		<g>
			<g>
				<ellipse style="fill:#263238;" cx="369.89" cy="398.161" rx="50.566" ry="49.474"/>
				
					<ellipse style="fill:none;stroke:#263238;stroke-width:6;stroke-miterlimit:10;stroke-dasharray:12.085,12.085;" cx="369.89" cy="398.161" rx="50.566" ry="49.474"/>
			</g>
			<ellipse style="opacity:0.3;fill:#FFFFFF;" cx="369.89" cy="398.161" rx="24.405" ry="23.878"/>
			<ellipse style="opacity:0.3;fill:#FFFFFF;" cx="369.89" cy="398.161" rx="16.441" ry="16.086"/>
		</g>
		<polygon style="fill:#407BFF;" points="118.563,303.293 119.578,290.105 268.602,290.097 271.969,348.123 231.466,348.131 
			201.873,309.22 170.272,304.28 		"/>
		<path style="fill:#263238;" d="M267.447,268.895l-7.492-1.343l-18.99,16.585l-5.99-9.939l10.836-10.116
			c0.556-0.664,0.537-1.596-0.046-2.24l0,0c-0.585-0.647-1.579-0.831-2.39-0.442l-30.187,14.497c-1.042,0.5-1.535,1.624-1.163,2.651
			l0,0c0.33,0.913,1.265,1.523,2.308,1.507l11.073-1.938l7.563,13.759l-9.595,9.583l14.992,16.953l7.196,1.474l1.999,16.401
			l23.28,0.171l-2.239-46.362L267.447,268.895z"/>
		<polygon style="fill:#407BFF;" points="118.563,303.293 119.578,290.105 268.602,290.097 272.493,348.131 231.466,348.131 
			201.873,309.22 170.272,304.28 		"/>
		<path style="fill:#407BFF;" d="M103.516,309.712c0,0-0.758-11.526,0-11.526c0.758,0,62.135-12.923,98.885,11.526
			c36.751,24.448,35.993,42.61,35.993,42.61l-9.851,2.794C228.544,355.116,204.675,290.503,103.516,309.712z"/>
		<path style="opacity:0.3;" d="M103.516,309.712c0,0-0.758-11.526,0-11.526c0.758,0,62.135-12.923,98.885,11.526
			c36.751,24.448,35.993,42.61,35.993,42.61l-9.851,2.794C228.544,355.116,204.675,290.503,103.516,309.712z"/>
		<g>
			<rect x="191.712" y="209.597" style="fill:#407BFF;" width="7.81" height="82.478"/>
			<path style="fill:#407BFF;" d="M206.733,231.929h-9.009v-6.276h9.009c1.733,0,3.138,1.405,3.138,3.138l0,0
				C209.871,230.524,208.466,231.929,206.733,231.929z"/>
			<path style="fill:#407BFF;" d="M206.733,267.711h-9.009v-6.276h9.009c1.733,0,3.138,1.405,3.138,3.138l0,0
				C209.871,266.306,208.466,267.711,206.733,267.711z"/>
		</g>
		<path style="opacity:0.3;fill:#FFFFFF;" d="M121.065,274.181c0,0,56.45-61.97,57.259-61.97c0.809,0,13.387,0,13.387,0
			l-72.133,77.894L121.065,274.181z"/>
		<g style="opacity:0.3;">
			<path d="M274.949,296.473c37.567,1.378,65.804,2.247,65.804,2.247s-39.822-11.139-66.23-11.139L274.949,296.473z"/>
		</g>
		<rect x="236.716" y="369.318" style="fill:#263238;" width="39.059" height="16.187"/>
		<rect x="236.408" y="388.363" style="fill:#263238;" width="39.674" height="6.018"/>
		<path style="opacity:0.3;" d="M300.351,345.46L300.351,345.46c-1.159,0-2.098-0.939-2.098-2.098v-25.481
			c0-1.159,0.939-2.098,2.098-2.098l0,0c1.159,0,2.098,0.939,2.098,2.098v25.481C302.449,344.521,301.509,345.46,300.351,345.46z"/>
		<path style="opacity:0.3;" d="M308.328,345.46L308.328,345.46c-1.159,0-2.098-0.939-2.098-2.098v-25.481
			c0-1.159,0.939-2.098,2.098-2.098l0,0c1.159,0,2.098,0.939,2.098,2.098v25.481C310.426,344.521,309.487,345.46,308.328,345.46z"/>
		<path style="opacity:0.3;" d="M316.306,345.46L316.306,345.46c-1.159,0-2.098-0.939-2.098-2.098v-25.481
			c0-1.159,0.939-2.098,2.098-2.098l0,0c1.159,0,2.098,0.939,2.098,2.098v25.481C318.404,344.521,317.464,345.46,316.306,345.46z"/>
		<path style="opacity:0.3;" d="M324.283,345.46L324.283,345.46c-1.159,0-2.098-0.939-2.098-2.098v-25.481
			c0-1.159,0.939-2.098,2.098-2.098l0,0c1.159,0,2.098,0.939,2.098,2.098v25.481C326.381,344.521,325.442,345.46,324.283,345.46z"/>
		<path style="opacity:0.3;" d="M265.62,206.263c-46.849,0-93.827,0-140.676,0v-3.076H265.62V206.263z"/>
		<g>
			<path style="fill:#263238;" d="M119.594,289.631c41.577-0.147,104.335,0.036,146.476,0c-6.101,0.203-12.204,0.33-18.306,0.479
				C205.126,290.891,162.199,290.728,119.594,289.631L119.594,289.631z"/>
		</g>
		<g>
			<path style="fill:#263238;" d="M298.253,317.457c0.682,8.546,0.682,17.197,0,25.744
				C297.571,334.653,297.571,326.004,298.253,317.457L298.253,317.457z"/>
		</g>
		<g>
			<path style="fill:#263238;" d="M306.295,317.457c0.682,8.546,0.682,17.197,0,25.744
				C305.613,334.653,305.613,326.004,306.295,317.457L306.295,317.457z"/>
		</g>
		<g>
			<path style="fill:#263238;" d="M314.337,317.457c0.682,8.546,0.682,17.197,0,25.744
				C313.655,334.653,313.655,326.004,314.337,317.457L314.337,317.457z"/>
		</g>
		<g>
			<path style="fill:#263238;" d="M322.38,317.457c0.682,8.546,0.682,17.197,0,25.744
				C321.697,334.653,321.698,326.004,322.38,317.457L322.38,317.457z"/>
		</g>
		<g>
			<path style="fill:#263238;" d="M274.523,307.025c36.994,1.756,78.074,4.461,115.008,7.528
				C352.505,312.779,311.439,310.107,274.523,307.025L274.523,307.025z"/>
		</g>
		<g>
			<path style="fill:#263238;" d="M195.352,289.824c0.685,5.271,0.69,10.555,0,15.827
				C194.662,300.379,194.668,295.095,195.352,289.824L195.352,289.824z"/>
		</g>
		<path style="opacity:0.3;" d="M214.573,299.605h-10.791c-1.334,0-2.415-1.081-2.415-2.416l0,0c0-1.334,1.081-2.415,2.415-2.415
			h10.791c1.334,0,2.415,1.082,2.415,2.415l0,0C216.988,298.523,215.907,299.605,214.573,299.605z"/>
	</g>
</g>
</svg>
