<svg xmlns="http://www.w3.org/2000/svg"  viewBox="0 0 399 17" fill="none">
    <path d="M-0.000610352 8.51538C-0.00208811 12.9337 3.57844 16.5154 7.99671 16.5154C12.415 16.5154 15.9979 12.9337 15.9994 8.51538C16.0009 4.0971 12.4203 0.515381 8.00207 0.515381C3.58379 0.515381 0.000867407 4.0971 -0.000610352 8.51538ZM382.847 8.51538C382.845 12.9337 386.426 16.5154 390.844 16.5154C395.262 16.5154 398.845 12.9337 398.847 8.51538C398.848 4.0971 395.268 0.515381 390.849 0.515381C386.431 0.515381 382.848 4.0971 382.847 8.51538ZM7.99889 10.0154H390.846L390.847 7.01538H7.99989L7.99889 10.0154Z" fill="black"/>
  </svg>