<svg width="80" height="80" viewBox="0 0 80 80" fill="none" xmlns="http://www.w3.org/2000/svg">
<g id="Speedometer">
<g id="Union">
<path d="M36.6667 23.3788H43.3334V30.0454H36.6667V23.3788Z" fill="black"/>
<path d="M23.3334 43.2721H16.6667V49.9388H23.3334V43.2721Z" fill="black"/>
<path d="M56.39 43.3788H63.0567V50.0454H56.39V43.3788Z" fill="black"/>
<path d="M56.46 34.5854L51.7167 29.9021L35.2134 46.3854L39.93 51.0988L56.46 34.5854Z" fill="black"/>
<path fill-rule="evenodd" clip-rule="evenodd" d="M9.46654 33.2914C11.6385 28.328 15.0377 23.8518 19.54 20.3513C31.5752 10.994 48.4249 10.994 60.4601 20.3513C64.9623 23.8518 68.3616 28.328 70.5335 33.2914H70.549C72.6255 38.0454 73.5144 43.0727 73.3092 48.0054C73.1476 52.0552 72.2438 56.1232 70.5467 60.0088H70.5359C69.9944 61.246 69.3768 62.453 68.6848 63.6221H76.6667V70.2888H63.4894C63.4856 70.2926 63.4818 70.2963 63.478 70.3001H52.3272C52.3344 70.2963 52.3417 70.2926 52.3489 70.2888H27.6558C27.663 70.2926 27.6703 70.2963 27.6775 70.3001H16.5267C16.5229 70.2963 16.5191 70.2926 16.5153 70.2888H3.33337V63.6221H11.3199C10.6279 62.453 10.0103 61.246 9.46886 60.0088H9.45337C7.37707 55.2551 6.48815 50.2282 6.69312 45.2959C6.85459 41.2457 7.75842 37.1773 9.45569 33.2914H9.46654ZM16.5415 59.3326C16.6641 59.5591 16.7903 59.7846 16.92 60.0088C17.6496 61.2699 18.4873 62.4793 19.4314 63.6221H60.5733C61.5174 62.4793 62.3555 61.2699 63.0851 60.0088H63.08C63.9181 58.5608 64.6061 57.062 65.1474 55.5318C67.6802 48.3723 67.0025 40.525 63.4619 33.9695C63.339 33.7423 63.2125 33.5162 63.0824 33.2914C61.5656 30.6694 59.58 28.2714 57.1482 26.2293C47.2322 17.9029 32.7679 17.9029 22.8519 26.2293C20.42 28.2714 18.4341 30.6694 16.9173 33.2914H16.9224C16.0847 34.7388 15.397 36.2368 14.8557 37.7663C14.0989 39.9114 13.6195 42.1438 13.4277 44.4059C12.995 49.5622 14.0722 54.7615 16.5415 59.3326Z" fill="black"/>
</g>
</g>
</svg>
