<svg width="80" height="80" viewBox="0 0 80 80" fill="none" xmlns="http://www.w3.org/2000/svg">
<g id="cup-sport">
<g id="shape">
<path d="M41.5924 21.8196C41.1084 20.2535 38.8916 20.2535 38.4077 21.8196L37.2154 25.6778C36.9996 26.3761 36.354 26.8524 35.6231 26.8524H31.5939C29.9996 26.8524 29.3152 28.8757 30.5821 29.8435L33.9833 32.4418C34.5384 32.8658 34.7701 33.5909 34.5639 34.2583L33.2991 38.3513C32.82 39.9017 34.6138 41.1529 35.9032 40.1678L38.9883 37.8111C39.5856 37.3547 40.4145 37.3547 41.0118 37.8111L44.0968 40.1678C45.3863 41.1529 47.1801 39.9017 46.701 38.3513L45.4362 34.2583C45.2299 33.5909 45.4617 32.8658 46.0168 32.4418L49.418 29.8435C50.6848 28.8757 50.0004 26.8524 48.4062 26.8524H44.377C43.6461 26.8524 43.0004 26.3761 42.7846 25.6778L41.5924 21.8196Z" fill="black"/>
<path fill-rule="evenodd" clip-rule="evenodd" d="M16.6667 9.99996C16.6667 8.15901 18.1591 6.66663 20 6.66663H60C61.841 6.66663 63.3334 8.15901 63.3334 9.99996V13.3333H73.3334C75.1743 13.3333 76.6667 14.8257 76.6667 16.6666V17.0016C76.6667 24.0741 73.8572 30.8569 68.8562 35.8578L60.6904 44.0237C60.5975 44.1165 60.5005 44.2028 60.4 44.2824C59.3395 46.9521 58.0337 49.5006 56.554 51.8025C53.3032 56.8593 48.6937 61.4837 43.3334 62.8946V66.6666H56.6667V73.3333H23.3334V66.6666H36.6667V62.8946C31.3064 61.4837 26.6969 56.8593 23.4461 51.8025C21.9663 49.5006 20.6606 46.9521 19.6001 44.2824C19.4996 44.2028 19.4026 44.1165 19.3097 44.0237L11.1439 35.8578C6.14289 30.8569 3.33337 24.0741 3.33337 17.0016V16.6666C3.33337 14.8257 4.82576 13.3333 6.66671 13.3333H16.6667V9.99996ZM16.6667 30C16.6667 30.6676 16.689 31.341 16.7325 32.0184L15.8579 31.1438C12.8213 28.1072 10.862 24.1946 10.226 20H16.6667V30ZM63.2676 32.0184L64.1422 31.1438C67.1788 28.1072 69.1381 24.1946 69.7741 20H63.3334V30C63.3334 30.6676 63.3111 31.341 63.2676 32.0184ZM23.3334 13.3333V30C23.3334 35.9277 25.5914 42.8112 29.054 48.1974C32.6469 53.7864 36.7771 56.6666 40 56.6666C43.223 56.6666 47.3532 53.7864 50.9461 48.1974C54.4087 42.8112 56.6667 35.9277 56.6667 30V13.3333H23.3334Z" fill="black"/>
</g>
</g>
</svg>
