<svg viewBox="0 0 40 40" fill="none" xmlns="http://www.w3.org/2000/svg">
    <g clip-path="url(#clip0_21_3256)">
        <path d="M20 40C31.0457 40 40 31.0457 40 20C40 8.9543 31.0457 0 20 0C8.9543 0 0 8.9543 0 20C0 31.0457 8.9543 40 20 40Z" fill="none"/>
        <path fill-rule="evenodd" clip-rule="evenodd" d="M14.7063 12.4289C15.4673 11.6675 16.7407 11.8244 17.2944 12.7477L18.8983 15.4225C19.2888 16.0737 19.1862 16.9073 18.6495 17.4443L17.8006 18.2937C17.9741 18.6496 18.4094 19.3364 19.4803 20.408C20.5512 21.4795 21.2376 21.915 21.5933 22.0886L22.4422 21.2392C22.9789 20.7022 23.812 20.5996 24.4629 20.9903L27.1361 22.5952C28.0589 23.1492 28.2156 24.4234 27.4547 25.1847L25.38 27.2607C24.9198 27.7212 24.2553 28.0184 23.527 27.9277C22.0824 27.7476 18.8187 27.0203 15.8236 24.0775C12.8002 21.107 12.1091 17.7811 11.9517 16.3306C11.8739 15.6138 12.1706 14.9661 12.6207 14.5157L14.7063 12.4289ZM15.876 13.5992L13.7904 15.686C13.633 15.8435 13.5812 16.0141 13.5961 16.1519C13.7287 17.374 14.3238 20.2843 16.9825 22.8966C19.635 25.5027 22.5101 26.1331 23.7315 26.2853C23.8739 26.303 24.0501 26.2507 24.2103 26.0904L26.2851 24.0144L23.6118 22.4095L22.6373 23.3846C22.3568 23.6653 21.8447 23.9429 21.2526 23.7378C20.6789 23.539 19.7344 23.0029 18.3106 21.5783C16.8868 20.1537 16.3511 19.2087 16.1525 18.6346C15.9474 18.0421 16.2249 17.5298 16.5054 17.2491L17.4799 16.274L15.876 13.5992Z" fill="white"/>
    </g>
    <defs>
        <clipPath>
            <rect fill="white"/>
        </clipPath>
    </defs>
</svg>
