<svg width="80" height="80" viewBox="0 0 80 80"  xmlns="http://www.w3.org/2000/svg">
<g id="tractor">
<path id="Union" fill-rule="evenodd" clip-rule="evenodd" d="M40.0001 13.3334C38.6371 13.3334 37.4114 14.1632 36.9052 15.4287L31.0766 30H23.3334V20H26.6667V13.3334H13.3334V20H16.6667V30H13.3334C12.4494 30 11.6015 30.3512 10.9764 30.9764C10.3513 31.6015 10.0001 32.4493 10.0001 33.3334L10.0001 50.1684C7.9381 52.2726 6.66675 55.1545 6.66675 58.3334C6.66675 64.7767 11.8901 70 18.3334 70C22.9874 70 27.0049 67.275 28.8774 63.3334H43.3322C46.3729 67.3815 51.214 70 56.6668 70C65.8715 70 73.3334 62.5381 73.3334 53.3334C73.3334 49.5806 72.0931 46.1176 70.0001 43.3318V16.6667C70.0001 14.8258 68.5077 13.3334 66.6668 13.3334H40.0001ZM16.6667 46.7849L16.6667 36.6667H33.3334C34.6964 36.6667 35.9221 35.8369 36.4283 34.5713L42.2569 20H63.3334V38.0535C61.2919 37.1615 59.0371 36.6667 56.6668 36.6667C47.462 36.6667 40.0001 44.1286 40.0001 53.3334C40.0001 54.4749 40.1149 55.5897 40.3335 56.6667H29.8819C29.0732 51.0129 24.2109 46.6667 18.3334 46.6667C17.7675 46.6667 17.2111 46.707 16.6667 46.7849ZM46.6667 53.3334C46.6667 47.8105 51.1439 43.3334 56.6668 43.3334C62.1896 43.3334 66.6668 47.8105 66.6668 53.3334C66.6668 58.8562 62.1896 63.3334 56.6668 63.3334C51.1439 63.3334 46.6667 58.8562 46.6667 53.3334ZM13.3334 58.3334C13.3334 55.572 15.572 53.3334 18.3334 53.3334C21.0948 53.3334 23.3334 55.572 23.3334 58.3334C23.3334 61.0948 21.0948 63.3334 18.3334 63.3334C15.572 63.3334 13.3334 61.0948 13.3334 58.3334ZM56.6667 56.6667C58.5077 56.6667 60.0001 55.1743 60.0001 53.3334C60.0001 51.4924 58.5077 50 56.6667 50C54.8258 50 53.3334 51.4924 53.3334 53.3334C53.3334 55.1743 54.8258 56.6667 56.6667 56.6667Z" fill="#FF9900"/>
</g>
</svg>
