<svg width="80" height="80" viewBox="0 0 80 80" fill="none" xmlns="http://www.w3.org/2000/svg">
<g id="shield_check">
<g id="shape">
<path d="M39.0238 50.6903L57.3572 32.357L52.6432 27.643L36.6669 43.6194L29.0238 35.9764L24.3099 40.6903L34.3099 50.6903C35.6116 51.9922 37.7222 51.9922 39.0238 50.6903Z" fill="#FF9900"/>
<path fill-rule="evenodd" clip-rule="evenodd" d="M43.5297 7.57286C42.7218 7.28396 41.9155 6.98855 41.119 6.66892L38.8863 6.66669C38.493 6.82517 38.0971 6.97715 37.6998 7.12526C37.2911 7.27765 36.8809 7.42596 36.4703 7.57286C34.9211 8.12685 32.7303 8.867 30.1758 9.60675C25.0128 11.1017 18.5807 12.5299 13.0001 12.5299C11.3432 12.5299 10 13.891 10 15.5701V39.8918C10 51.9735 17.679 60.3675 24.7434 65.5379C28.3164 68.1531 31.8701 70.0515 34.5209 71.2952C35.8504 71.919 36.9635 72.3828 37.7525 72.6939C37.8516 72.7328 37.9515 72.7735 38.0522 72.8143C38.6755 73.0672 39.3315 73.3334 40 73.3334C40.6683 73.3334 41.3076 73.074 41.9381 72.8182L41.9631 72.808L41.9822 72.8001C42.0707 72.7643 42.1592 72.7287 42.2475 72.6939C43.0365 72.3828 44.1496 71.919 45.4791 71.2952C48.1299 70.0515 51.6836 68.1531 55.2563 65.5379C62.321 60.3675 70 51.9735 70 39.8918V15.5701C70 13.891 68.6568 12.5299 66.9999 12.5299C61.4193 12.5299 54.987 11.1017 49.8242 9.60675C47.2697 8.867 45.0789 8.12685 43.5297 7.57286ZM63.3333 39.8918C63.3333 48.8292 57.688 55.4793 51.3275 60.1345C48.2416 62.3932 44.8665 64.1337 41.4836 65.8785C40.989 66.1336 40.4942 66.3888 40 66.6457C39.5058 66.3888 39.011 66.1336 38.5164 65.8785C35.1335 64.1337 31.7584 62.3932 28.6725 60.1345C22.3122 55.4793 16.6667 48.8292 16.6667 39.8918V19.0615C22.1035 18.6168 27.6583 17.297 32.0243 16.0329C34.7227 15.2517 37.3608 14.329 40 13.372C42.6392 14.329 45.2773 15.2517 47.9757 16.0329C52.3417 17.297 57.8963 18.6168 63.3333 19.0615V39.8918Z" fill="#FF9900"/>
</g>
</g>
</svg>
