<svg width="80" height="80" viewBox="0 0 80 80" fill="none" xmlns="http://www.w3.org/2000/svg">
<g id="early-payment">
<g id="shape">
<path fill-rule="evenodd" clip-rule="evenodd" d="M63.3333 36.6666V56.6666H40V63.3333H66.6667C68.5076 63.3333 70 61.8409 70 60V13.3333C70 11.4924 68.5076 9.99998 66.6667 9.99998H53.3333V3.33331H46.6667V9.99998H33.3333V3.33331H26.6667V9.99998H13.3333C11.4924 9.99998 10 11.4924 10 13.3333V36.6666H63.3333ZM26.6667 23.3333V16.6666H16.6667V30H63.3333V16.6666H53.3333V23.3333H46.6667V16.6666H33.3333V23.3333H26.6667Z" fill="#FF9900"/>
<path d="M15 50C15 52.7614 12.7614 55 10 55C7.23858 55 5 52.7614 5 50C5 47.2386 7.23858 45 10 45C12.7614 45 15 47.2386 15 50Z" fill="#FF9900"/>
<path d="M35 70C35 72.7614 32.7614 75 30 75C27.2386 75 25 72.7614 25 70C25 67.2386 27.2386 65 30 65C32.7614 65 35 67.2386 35 70Z" fill="#FF9900"/>
<path d="M10.6904 74.0237L34.0237 50.6904L29.3096 45.9763L5.97631 69.3097L10.6904 74.0237Z" fill="#FF9900"/>
<path d="M56.6667 46.6666C56.6667 48.5076 55.1743 50 53.3333 50C51.4924 50 50 48.5076 50 46.6666C50 44.8257 51.4924 43.3333 53.3333 43.3333C55.1743 43.3333 56.6667 44.8257 56.6667 46.6666Z" fill="#FF9900"/>
</g>
</g>
</svg>
